<svg width="426" height="649" viewBox="0 0 426 649" fill="none" xmlns="http://www.w3.org/2000/svg">
<path d="M238.779 235.197C252.262 233.375 259.984 208.16 256.027 178.879C252.069 149.597 237.93 127.337 224.447 129.16C210.964 130.982 203.242 156.197 207.2 185.478C211.157 214.759 225.296 237.019 238.779 235.197Z" fill="#F5F6FA"/>
<path d="M177.363 243.437C190.846 241.614 198.568 216.399 194.611 187.118C190.653 157.837 176.514 135.577 163.031 137.399C149.548 139.221 141.826 164.436 145.784 193.717C149.741 222.999 163.88 245.259 177.363 243.437Z" fill="#F5F6FA"/>
<path d="M219.423 448.495L188.676 604.763C188.593 605.538 187.579 605.683 187.292 604.958C184.681 598.323 176.239 584.056 153.142 589.072C125.185 595.17 123.116 627.716 122.96 631.596C122.952 631.807 123.107 632.005 123.317 632.013L187.159 643.514L221.039 638.726L231.671 429.761L219.4 448.496L219.423 448.495Z" fill="#F5F6FA"/>
<path d="M256.142 440.817L296.399 595.449C296.525 596.208 297.559 596.318 297.807 595.578C300.011 588.82 307.552 574.186 330.94 578.167C359.238 582.974 363.287 615.37 363.691 619.256C363.708 619.488 363.558 619.662 363.349 619.677L300.957 628.111L267.639 632.624L240.387 431.028L256.165 440.815L256.142 440.817Z" fill="#F5F6FA"/>
<path d="M149.91 417.021L105.469 398.75C108.001 392.014 110.7 385.336 113.592 378.737C115.026 375.438 116.529 372.134 118.059 368.875L121.742 361.309L122.249 360.292L122.819 359.178L123.983 356.948L126.31 352.488C132.619 340.742 139.522 329.768 146.514 320.629C147.382 319.446 148.257 318.356 149.135 317.313L151.768 314.158C153.521 312.327 155.277 310.24 157.007 308.737C157.858 307.952 158.745 307.024 159.604 306.355L162.154 304.278C163.815 303.107 165.518 301.863 167.112 301.046C170.358 299.244 173.445 298.131 176.433 297.56C179.447 297.034 182.337 296.728 185.618 297.604L188.389 298.214C189.365 298.492 190.651 298.537 191.488 299.151L195.786 301.49C197.021 302.121 198.083 302.928 199.084 303.856C200.083 304.761 201.042 305.762 201.966 306.906C203.811 309.169 205.553 311.93 207.013 315.598C208.472 319.265 209.585 323.914 210.201 329.415C211.48 340.413 211.156 354 210.608 367.394C210.384 372.561 210.119 377.801 209.804 382.998L209.023 395.756L208.013 411.422C207.38 421.769 206.745 432.093 206.505 441.782C206.45 444.187 206.438 446.541 206.46 448.73C206.48 450.896 206.588 452.986 206.705 454.259C206.721 454.467 206.748 454.838 206.769 454.813L206.771 454.836C206.771 454.836 206.887 454.828 206.427 454.908L204.59 455.277L203.003 455.558C201.945 455.752 200.889 455.97 199.837 456.235L198.258 456.631C197.71 456.788 197.207 456.918 196.817 456.994C195.946 457.198 195.1 457.424 194.258 457.696L192.986 458.139C192.556 458.311 192.126 458.482 191.828 458.551C191.168 458.763 190.511 459.021 189.858 459.326C189.544 459.489 189.229 459.652 188.915 459.815C188.644 459.928 188.44 460.013 188.194 460.148C187.746 460.391 187.303 460.703 186.908 461.035C186.64 461.195 186.376 461.401 186.164 461.696C186.039 461.892 186.016 461.894 185.973 461.943C185.93 461.993 185.889 462.066 185.871 462.137C185.871 462.137 185.948 461.922 185.92 461.854C185.916 461.808 185.913 461.761 185.909 461.715C185.899 461.576 185.886 461.391 185.874 461.228C185.826 460.906 185.69 460.636 185.529 460.345C185.35 459.822 185.152 459.347 184.886 458.901C184.753 458.678 184.62 458.455 184.465 458.256C184.387 458.146 184.313 458.081 184.233 457.947L183.942 457.479C183.147 456.186 182.282 455.202 181.216 454.022C180.037 452.571 178.772 451.22 177.444 449.966C176.822 449.43 175.988 448.559 175.183 447.756C174.378 446.953 173.553 446.199 172.705 445.446L172.081 444.886C171.832 444.671 171.633 444.5 171.71 444.587C171.71 444.587 171.733 444.586 171.752 444.537C171.858 444.39 171.946 444.313 172.155 443.995C172.894 442.962 173.953 441.205 175.007 439.38C176.08 437.506 177.165 435.468 178.246 433.384C180.428 429.168 182.592 424.72 184.729 420.204C193.314 402.044 201.599 382.975 210.187 363.906C214.492 354.36 218.863 344.761 223.462 335.1C225.785 330.267 228.154 325.431 230.657 320.515C233.185 315.621 235.826 310.672 238.916 305.503C240.494 302.892 242.164 300.252 244.21 297.351L245.885 295.107C246.547 294.289 247.098 293.549 247.872 292.676C248.69 291.753 249.309 290.985 250.419 289.924C250.941 289.419 251.418 288.941 251.985 288.41C252.686 287.799 253.388 287.211 254.115 286.645C254.685 286.16 255.973 285.295 256.998 284.66C257.555 284.316 258.023 284.025 258.696 283.673C259.528 283.262 260.361 282.874 261.222 282.53C262.105 282.185 262.897 281.871 263.902 281.587C265.181 281.236 266.513 280.974 267.852 280.805C268.521 280.709 269.193 280.659 269.842 280.611C270.19 280.586 270.468 280.565 270.889 280.581L272.174 280.626C273.881 280.709 275.602 280.978 277.286 281.366C278.777 281.676 281.006 282.513 282.898 283.515C283.868 284.026 284.795 284.587 285.677 285.174C286.463 285.722 287.206 286.319 287.93 286.965C288.654 287.611 289.356 288.281 290.013 288.978C290.342 289.327 290.672 289.699 290.953 290.027L291.621 290.864C292.475 292.012 293.287 293.234 293.986 294.487C294.578 295.562 294.916 296.353 295.314 297.326C295.709 298.252 296.066 299.298 296.248 299.867C296.647 301.166 297.072 302.812 297.206 303.688C297.627 305.917 297.742 307.47 297.853 308.977L297.933 310.998L297.922 312.747C297.88 315.01 297.762 316.884 297.589 318.644C296.913 325.569 295.852 331.077 294.815 336.607C293.751 342.069 292.625 347.326 291.493 352.513C289.229 362.865 286.942 372.915 284.965 382.732C283.975 387.629 283.075 392.473 282.324 397.143C281.573 401.79 281.001 406.353 280.795 410.19C280.677 412.063 280.688 413.787 280.76 414.76L280.798 415.27L280.801 415.317L277.17 416.004C276.596 416.117 276.002 416.277 275.429 416.413L274.562 416.663L273.829 416.834C272.844 417.07 271.888 417.374 270.913 417.749C269.249 418.245 267.653 419.038 266.576 419.607C264.268 420.85 263.548 422.138 263.675 421.966C263.576 422.206 263.79 421.631 263.772 421.702L263.775 421.749C263.775 421.749 263.694 421.918 263.678 422.012L263.642 422.155C263.642 422.155 263.641 421.829 263.611 421.738C263.589 421.436 263.492 421.07 263.375 420.753C262.854 419.067 261.274 416.294 258.468 413.006C257.835 412.33 256.99 411.297 256.183 410.471L253.517 407.825L252.79 407.133L252.415 406.788L252.521 406.64C252.886 406.217 253.76 404.801 254.601 403.247C255.032 402.47 255.481 401.598 255.925 400.679L256.591 399.278L257.312 397.687L258.089 395.905C262.212 386.418 265.706 376.302 269.257 366.019C272.79 355.807 276.318 345.199 280.066 336.322C280.965 334.298 282.108 331.79 282.624 330.89L283.603 329L284.601 327.365C285.262 326.22 285.917 325.31 286.574 324.422C287.247 323.44 287.876 322.811 288.515 321.995C291.096 319.077 293.45 317.505 295.613 316.18C296.684 315.542 297.728 315.161 298.701 314.763C299.691 314.294 300.648 313.99 301.586 313.758L308.795 314.81C309.267 314.891 309.905 315.007 310.523 315.171C311.141 315.335 311.55 315.515 311.937 315.696C312.369 315.874 312.711 316.081 313.052 316.289C313.417 316.495 313.713 316.707 314.008 316.918C315.214 317.784 316.193 318.737 317.159 319.831C319.067 321.997 320.724 324.858 322.414 328.182C322.83 329.083 323.24 329.892 323.618 330.913L324.757 334.021L325.889 337.363C326.273 338.453 326.588 339.875 326.935 341.108C329.712 351.553 330.782 367.297 331.537 381.294L332.627 401.721C332.796 404.948 333.034 408.17 333.278 411.158L333.578 415.214L333.787 418.042C333.923 419.873 334.084 421.749 334.315 423.293C334.425 424.147 334.541 424.768 334.635 425.413C334.675 425.643 334.714 425.85 334.733 426.105C334.734 426.128 334.686 426.109 334.665 426.134L334.222 426.446L333.606 426.934L333.014 427.444L332.73 427.698C332.137 428.185 333.391 427.183 333.148 427.364L332.883 427.57C332.531 427.853 332.181 428.158 331.831 428.464L330.916 429.324C330.412 429.757 329.879 430.426 329.598 430.726C328.87 431.596 328.754 432.233 328.8 432.23C328.818 432.159 328.501 431.646 327.497 430.998L327.132 430.792L326.668 430.5C326.351 430.314 326.038 430.174 325.701 430.035C324.877 429.607 324.011 429.228 323.054 428.903C321.349 428.213 321.95 428.472 321.876 428.407L321.96 428.284C321.96 428.284 322.105 428.041 322.184 427.848C322.345 427.51 322.5 427.079 322.678 426.647L324.829 420.755C327.839 412.609 331.69 404.797 336.197 397.682C345.233 383.404 356.714 371.626 369.146 361.688C359.189 374.846 351.076 389.311 346.297 404.416C343.875 412.006 342.428 419.547 341.615 427.461L341.265 430.61C341.117 431.762 341.033 432.841 340.57 434.763C340.443 435.261 340.256 435.881 339.943 436.696C339.864 436.889 339.724 437.202 339.626 437.442C339.484 437.732 339.425 437.877 339.177 438.314C338.973 438.702 338.744 439.069 338.49 439.414C338.151 439.882 337.661 440.501 337.207 440.977L336.817 441.379L336.204 441.913C335.786 442.247 335.343 442.56 334.898 442.849C334.521 443.11 333.848 443.462 333.169 443.722C332.489 443.982 331.805 444.196 331.094 444.342C329.74 444.628 328.155 444.629 326.833 444.4C325.795 444.221 324.673 443.861 323.802 443.436C323.174 443.133 322.567 442.805 322.001 442.404C321.486 442.046 321.262 441.853 320.89 441.554L320.392 441.125L320.067 440.822L319.463 440.214C319.109 439.844 318.905 439.603 318.624 439.274L318.056 438.524C317.694 438.038 317.33 437.529 316.989 437.018C316.599 436.464 316.432 436.104 316.193 435.702L315.521 434.493C313.97 431.485 313.017 428.992 312.19 426.63C311.337 424.246 310.635 421.99 309.957 419.757C309.692 419.007 309.495 418.556 309.287 417.942L308.729 416.701L307.73 414.538C307.096 413.21 306.502 412.112 305.972 411.242C304.888 409.505 303.921 408.714 303.045 408.848C302.169 408.983 301.41 410.065 300.675 412.1C300.483 412.65 300.307 413.106 300.042 413.941C299.827 414.819 299.73 415.712 299.628 416.535C299.448 418.203 299.392 419.652 299.414 420.886C299.414 420.886 299.414 420.886 299.412 420.862L299.211 421.297L298.199 423.376C297.511 424.778 296.776 426.184 295.976 427.665C294.353 430.605 292.618 433.623 289.901 437.226C288.563 438.98 286.892 440.967 284.602 443.094C282.309 445.175 279.126 447.834 273.687 449.914C270.966 450.93 267.571 451.671 263.914 451.685C262.096 451.679 260.192 451.47 258.374 451.139C256.644 450.754 254.904 450.23 253.246 449.56C251.585 448.844 249.914 447.989 248.443 447.002C246.995 446.014 245.512 444.865 244.309 443.719C243.178 442.614 242.013 441.348 241.111 440.18C240.283 439.076 239.474 437.9 238.782 436.74C236.266 432.335 235.369 429.022 234.615 426.071L234.18 423.983L233.879 422.117C233.668 420.828 233.591 419.785 233.46 418.653C233.093 414.322 233.184 410.82 233.333 407.476C233.484 404.156 233.794 401.103 234.135 398.142C235.525 386.363 237.665 375.905 239.81 365.515L246.347 335.412C247.387 330.558 248.36 325.755 249.147 321.269C249.54 319.026 249.87 316.858 250.102 314.953C250.219 314.012 250.314 313.096 250.357 312.417L250.406 311.505L250.387 311.25L250.402 311.132C250.402 311.132 250.263 311.143 250.541 311.122C258.777 310.933 265.186 309.993 268.678 308.686C269.476 308.441 270.32 307.889 270.701 307.674C271.249 307.214 271.383 307.134 271.527 306.868L271.399 307.343C271.399 307.343 271.406 307.436 271.384 307.461C271.388 307.507 271.389 307.53 271.391 307.553L271.394 307.6L271.408 307.785C271.427 308.04 271.444 308.272 271.508 308.5C271.897 310.616 274.461 315.04 278.521 319.518C279.599 320.859 280.741 322.127 281.925 323.321L283.761 325.143L283.718 325.193C283.718 325.193 283.587 325.319 283.419 325.564C282.778 326.357 281.724 327.857 280.703 329.494C279.639 331.18 278.541 333.033 277.45 334.978C273.043 342.831 268.712 351.704 264.5 360.614C260.268 369.573 256.121 378.735 251.98 387.967C243.675 406.455 235.549 425.163 226.493 444.197C224.213 448.979 221.84 453.769 219.223 458.717C217.893 461.215 216.561 463.691 214.988 466.371C213.369 469.054 211.774 471.758 209.097 475.266C208.526 476.054 207.517 477.223 206.68 478.194C205.446 479.474 204.545 480.519 202.254 482.32L201.482 482.913C201.195 483.121 201.041 483.249 200.529 483.566C199.662 484.143 198.745 484.653 197.825 485.141C197.354 485.385 196.904 485.605 196.431 485.827C196.251 485.91 195.935 486.05 195.481 486.223L194.232 486.665C192.55 487.232 190.784 487.619 189.029 487.842C188.66 487.892 188.057 487.937 187.36 487.965C186.71 487.99 186.057 487.992 185.403 487.97C184.072 487.929 182.755 487.77 181.453 487.493C180.127 487.218 178.941 486.933 177.622 486.424C176.326 485.914 175.023 485.312 173.781 484.588C172.563 483.885 171.309 482.999 170.342 482.208C169.622 481.609 168.945 480.96 168.264 480.265C167.608 479.591 166.972 478.869 166.381 478.12C166.101 477.791 165.738 477.305 165.58 477.061L165.108 476.35C164.478 475.394 163.891 474.389 163.372 473.355C163.073 472.771 162.935 472.479 162.795 472.163L162.37 471.146C162.089 470.49 161.825 469.764 161.592 469.129L161.136 467.694L160.725 466.233L160.479 465.11C160.333 464.398 160.131 463.551 160.068 463.019L159.77 461.2L159.584 459.629C159.433 458.522 159.396 457.709 159.301 456.737C158.78 449.691 158.937 444.25 159.036 438.649C159.341 427.65 159.995 417.255 160.628 406.907L161.767 388.902L149.937 416.763L149.91 417.021Z" fill="#00C0D8"/>
<path d="M75.1129 344.643L74.207 345.946C75.1552 353.729 58.7512 355.967 52.804 356.22L51.5548 357.291C50.4699 356.486 50.153 356.929 50.9624 358.104C54.9632 360.209 59.4452 358.735 63.4518 357.134C74.7237 390.139 118.619 399.456 141.449 373.811C143.665 371.317 146.421 366.662 141.894 364.69C136.765 362.459 135.061 367.152 132.047 369.566C116.2 382.179 95.8079 382.172 81.0195 367.488C79.2832 365.752 72.4121 356.658 72.439 354.815C72.4727 353.065 77.9985 352.47 76.7694 346.246C76.5464 345.12 75.8923 344.469 75.707 343.854C74.4264 342.923 74.0881 343.391 75.1146 344.667L75.1129 344.643Z" fill="white"/>
<path d="M75.705 343.831C74.8616 340.933 74.0036 338.783 77.2565 336.445C80.8632 333.848 92.8858 336.968 91.1461 329.196C89.3378 321.127 77.0949 321.332 71.8278 325.427C73.4405 316.662 69.358 298.95 61.2715 294.537C47.6237 287.086 60.6084 312.996 57.8221 317.863C54.0359 310.15 48.5422 297.622 38.3611 298.607C24.8957 299.929 44.363 316.434 42.8861 319.154C39.0117 315.921 28.0873 310.949 24.3824 316C19.9167 322.11 34.4105 326.818 36.817 330.369C40.6095 335.961 37.4478 342.371 42.8404 347.542C44.0455 348.711 47.127 350.045 47.5124 350.529C48.5157 351.806 45.7227 355.322 50.9355 358.06L51.5279 357.247L52.0792 355.878C51.4655 355.457 49.5972 352.565 50.3956 352.017C55.5992 353.054 60.79 353.602 65.5848 350.685C68.7665 348.329 71.949 346.299 75.0877 344.622C75.134 344.619 75.1333 343.663 75.6801 343.809L75.705 343.831Z" fill="#75787F"/>
<path d="M51.5545 357.291C55.3183 359.343 71.043 354.219 74.1303 351.218C76.2613 349.149 76.5929 347.33 75.0894 344.645C74.5777 344.66 73.9615 343.889 72.7854 344.373C66.7245 346.871 65.7211 351.583 56.069 351.527C53.3649 351.518 48.2406 348.401 48.9772 353.636C49.0869 354.491 50.8995 356.943 51.5313 357.293L51.5545 357.291Z" fill="#F5F6FA"/>
<path d="M55.8482 295.567C56.2855 304.321 61.4589 311.885 58.5432 320.676C57.4297 321.062 57.0693 320.599 56.4891 319.686C53.4322 314.902 53.7086 309.498 48.5013 304.313C45.9367 301.776 38.5188 297.897 35.4709 300.802C31.7045 304.39 48.2406 318.758 45.7331 324.56C42.2563 320.086 31.8509 312.046 26.31 315.905C20.5906 319.87 33.3725 325.38 35.1492 326.717C41.6176 331.622 39.1923 338.536 42.0697 344.36C46.5879 353.464 67.0798 350.411 72.411 342.769C74.3283 340.018 73.0144 337.691 76.6082 335.235C81.0235 332.228 86.0981 335.302 88.8241 332.141C92.6448 327.711 84.6646 323.476 80.8249 323.551C76.3096 323.628 73.1964 326.911 69.4053 328.589C72.1888 319.901 70.5088 309.468 65.8763 301.654C63.693 297.97 60.4471 293.782 55.7967 295.501L55.8482 295.567Z" fill="#F5F6FA"/>
<path d="M51.3144 339.854C53.8683 339.409 55.0962 337.104 57.6674 336.261C58.3507 336.048 66.3582 335.293 63.8244 333.802C59.1871 334.122 53.6278 335.208 51.3144 339.854Z" fill="#75787F"/>
<path d="M237.957 236.406C222.821 238.457 207.756 216.243 203.645 185.855C199.534 155.467 208.167 130.056 223.303 128.005C238.439 125.954 253.504 148.168 257.615 178.556C261.725 208.944 253.093 234.355 237.957 236.406ZM223.827 131.951C211.252 133.65 203.739 158.116 207.429 185.342C211.121 212.592 224.857 234.158 237.432 232.46C250.008 230.761 257.521 206.296 253.831 179.069C250.138 151.819 236.403 130.253 223.827 131.951Z" fill="#F5F6FA"/>
<path d="M177.527 244.578C162.391 246.629 147.326 224.415 143.215 194.027C139.105 163.639 147.737 138.228 162.873 136.177C178.009 134.126 193.074 156.341 197.185 186.729C201.295 217.117 192.663 242.527 177.527 244.578ZM163.398 140.124C150.822 141.822 143.309 166.288 146.999 193.514C150.691 220.764 164.427 242.331 177.003 240.632C189.578 238.934 197.091 214.468 193.401 187.241C189.71 160.015 175.973 138.425 163.398 140.124Z" fill="#F5F6FA"/>
<path d="M177.22 218.358C182.703 217.617 185.897 207.767 184.355 196.357C182.812 184.947 177.118 176.298 171.636 177.039C166.153 177.78 162.959 187.63 164.501 199.04C166.043 210.45 171.738 219.099 177.22 218.358Z" fill="#0F1029"/>
<path d="M177.362 219.328C171.27 220.151 165.209 211.301 163.566 199.164C161.924 187.028 165.416 176.888 171.507 176.065C177.599 175.242 183.659 184.093 185.302 196.229C186.945 208.366 183.453 218.505 177.362 219.328ZM171.79 178.002C166.922 178.665 164.039 188.223 165.48 198.883C166.92 209.543 172.253 218.005 177.122 217.342C181.99 216.679 184.872 207.121 183.432 196.461C181.991 185.801 176.658 177.339 171.79 178.002Z" fill="#0F1029"/>
<path d="M229.565 212.509C235.047 211.769 238.241 201.918 236.699 190.508C235.157 179.099 229.463 170.45 223.98 171.191C218.498 171.932 215.304 181.782 216.846 193.192C218.388 204.602 224.083 213.25 229.565 212.509Z" fill="#0F1029"/>
<path d="M229.714 213.478C223.623 214.301 217.562 205.451 215.919 193.314C214.276 181.177 217.768 171.038 223.86 170.215C229.951 169.392 236.012 178.242 237.655 190.379C239.298 202.516 235.806 212.655 229.714 213.478ZM224.143 172.152C219.274 172.814 216.392 182.373 217.832 193.033C219.273 203.693 224.606 212.154 229.474 211.492C234.342 210.829 237.225 201.271 235.784 190.61C234.344 179.95 229.011 171.489 224.143 172.152Z" fill="#0F1029"/>
<path d="M206.687 253.166C204.402 253.475 202.372 253.438 200.719 253.141C197.886 252.651 195.77 251.456 194.545 249.706C193.321 247.955 192.927 245.467 193.389 242.567C194.166 237.639 197.841 230.283 205.801 224.474L208.021 227.712C201.011 232.821 197.816 239.093 197.167 243.243C196.882 245.058 197.065 246.583 197.64 247.426C198.215 248.269 199.569 248.938 201.317 249.252C205.331 249.957 212.102 248.874 219.06 243.699L221.304 246.935C216.134 250.767 210.957 252.617 206.665 253.191L206.687 253.166Z" fill="#F5F6FA"/>
<path d="M232.099 268.44C225.13 269.374 217.771 269.452 211.054 268.434L211.556 264.505C226.33 266.699 244.208 263.583 253.107 257.239C269.977 245.225 271.713 233.398 272.104 221.344L275.937 221.504C275.54 234.094 273.614 247.45 255.306 260.502C249.838 264.402 241.327 267.175 232.12 268.415L232.099 268.44Z" fill="#F5F6FA"/>
<path d="M187.56 75.4387L183.736 75.7214C183.688 75.0724 183.643 74.4698 183.552 73.8706C183.185 70.472 182.831 66.9558 185.695 59.9859C187.613 55.3464 191.471 51.7287 196.311 49.7396C196.174 45.3685 196.868 40.8894 198.733 36.7898C200.739 32.4001 204.191 28.3463 208.15 25.4669C208.525 21.0813 209.84 16.4863 212.346 12.2461L215.623 14.3343C213.946 17.1849 212.884 20.1532 212.326 23.0142C216.407 21.1512 220.707 20.6935 224.383 22.4959C228.203 24.3576 231.439 28.7326 232.643 33.6773C233.542 37.3163 233.106 40.5646 231.457 42.8537C229.787 45.1678 226.767 46.5562 223.163 46.6595C219.861 46.7638 216.499 45.7305 214.175 43.9215C210.86 41.3234 208.652 36.3596 208.154 30.5703C205.664 32.8284 203.54 35.6188 202.216 38.5132C200.77 41.6497 200.164 45.1202 200.161 48.5462C201.559 48.2331 202.991 48.0573 204.48 48.0172C211.573 47.8192 217.583 50.9405 220.209 56.1996C221.494 58.7614 220.89 62.2551 218.562 65.7597C216.211 69.266 212.148 72.6192 208.384 72.1516C205.492 71.8061 202.623 69.245 200.324 64.9404C198.675 61.8696 197.366 58.0279 196.735 53.9031C193.631 55.4143 190.805 57.8604 189.261 61.5634C186.769 67.5737 187.064 70.3018 187.391 73.4703C187.439 74.1193 187.534 74.7648 187.583 75.437L187.56 75.4387ZM200.413 52.5825C200.914 56.5305 202.121 60.24 203.633 63.0413C205.253 66.0443 207.217 68.0198 208.769 68.2081C210.579 68.4238 213.478 66.3452 215.387 63.4775C216.836 61.3196 217.375 59.159 216.799 57.9898C214.882 54.1231 210.215 51.8347 204.634 51.9909C203.307 52.019 201.875 52.1948 200.413 52.5825ZM211.863 27.7793C211.811 33.7024 213.811 38.6816 216.482 40.768C218.114 42.0456 220.568 42.773 223.034 42.7073C225.43 42.6468 227.418 41.8007 228.391 40.4703C229.344 39.1647 229.535 37.0299 228.938 34.627C228.037 30.9417 225.493 27.4243 222.786 26.1096C219.619 24.5725 215.586 25.4999 211.863 27.7793Z" fill="#F5F6FA"/>
<path d="M198.168 103.249C197.982 103.566 195.853 107.242 198.398 109.827C201.597 113.063 208.264 110.566 219.989 112.822C229.918 114.722 234.843 117.038 234.843 117.038C234.843 117.038 230.326 100.383 216.256 98.2532C210.057 97.3131 200.968 98.5676 198.168 103.249Z" fill="#F5F6FA"/>
<path d="M174.633 106.434C174.884 106.672 177.927 109.686 176.154 112.823C173.93 116.786 166.847 116.168 156.121 121.459C147.06 125.927 142.918 129.472 142.918 129.472C142.918 129.472 142.855 112.232 155.849 106.424C161.58 103.88 170.673 102.672 174.61 106.436L174.633 106.434Z" fill="#F5F6FA"/>
<path d="M374.46 397.954C374.347 398.638 375.212 400.252 374.38 400.337C349.427 398.219 326.962 383.404 315.02 360.562C313.88 358.386 309.5 347.058 308.844 346.687C304.854 344.418 302.282 348.081 303.311 352.549C309.64 380.163 340.145 402.215 365.917 407.231C368.044 407.633 374.688 407.655 375.641 408.26C377.011 409.138 377.591 413.196 381.27 414.416C381.784 414.122 381.719 413.87 381.165 413.631C380.484 411.351 379.466 408.933 378.087 406.355C377.818 403.345 376.925 401.034 375.406 399.399C375.366 398.236 375.027 397.749 374.437 397.955L374.46 397.954Z" fill="#F5F6FA"/>
<path d="M374.899 398.527L375.87 399.993L377.43 399.342C377.749 396.731 378.549 393.992 380.536 392.191C379.474 395.788 381.422 400.072 384.551 396.368C385.082 384.957 396.497 385.208 402.485 392.759C406.674 398.042 409.925 415.234 398.674 408.678C392.891 392.233 387.504 402.279 395.88 411.867C400.677 413.703 402.819 420.303 395.533 417.579C390.619 415.729 387.515 410.621 385.758 405.764C380.687 402.736 381.782 410.299 384.383 413.02C383.249 413.127 382.326 413.568 381.663 414.363L381.767 415.148C384.419 416.024 385.873 414.891 387.971 415.528C389.211 415.903 391.536 418.667 393.185 419.547C397.866 422.021 400.047 420.625 404.32 421.055C406.503 421.266 408.592 423.046 410.975 423.126C417.723 423.303 424.663 417.244 423.424 409.948C423.135 408.245 421.577 406.402 421.525 405.381C421.356 401.828 427.132 399.583 421.601 391.905C418.951 388.209 418.841 387.984 416.623 383.837C412.683 376.554 401.436 375.731 395.147 379.878C392.859 381.399 391.867 384.059 390.169 385.047C387.109 386.834 381.825 388.18 379.259 389.722C376.625 391.291 375.309 395.56 374.874 398.505L374.899 398.527Z" fill="#75787F"/>
<path d="M381.662 414.363C383.162 415.115 384.771 414.809 386.289 414.534C387.334 413.222 381.31 407.398 384.353 406.008C386.584 414.116 393.692 421.677 402.365 419.522C401.148 417.887 401.266 413.8 400.513 412.76C400.382 412.56 397.627 411.552 396.49 410.354C393.812 407.546 393.075 403.872 392.817 400.069L397.611 409.759C409.056 417.046 409.434 403.548 405.641 395.113C400.261 383.182 383.144 381.767 383.098 396.593C379.859 396.273 383.4 390.581 383.025 390.236C378.36 388.926 375.903 396.355 375.867 399.97C375.846 404.097 377.689 412.327 381.662 414.363Z" fill="#F5F6FA"/>
<path d="M393.092 384.877C398.534 384.405 402.582 388.091 405.563 392.485C408.018 396.055 407.136 400.199 412.554 397.841C420.618 394.378 417.458 382.214 410.12 379.727C407.49 378.826 401.575 378.564 398.906 379.344C397.81 379.658 391.374 383.699 393.069 384.879L393.092 384.877Z" fill="#F5F6FA"/>
<path d="M401.532 413.291C403.09 427.438 426.147 422.191 421.692 408.585C420.427 404.716 417.046 408.788 414.443 409.19C412.624 409.488 410.717 408.604 409.095 409.05C406.971 409.626 405.742 414.448 401.532 413.291Z" fill="#F5F6FA"/>
<path d="M408.165 399.61L409.315 408.241C419.68 409.107 427.412 399.586 418.923 390.985C417.394 396.155 413.918 400.84 408.165 399.61Z" fill="#F5F6FA"/>
<path d="M386.036 401.013L391.632 402.627C391.836 400.025 387.39 401.356 386.036 401.013Z" fill="#595959"/>
<path d="M170.614 191.425C171.454 191.312 171.943 189.807 171.708 188.064C171.472 186.322 170.601 185.001 169.761 185.114C168.922 185.228 168.432 186.733 168.668 188.475C168.903 190.218 169.775 191.539 170.614 191.425Z" fill="#F5F6FA"/>
<path d="M170.649 191.556C169.725 191.671 168.786 190.319 168.533 188.473C168.28 186.628 168.818 185.073 169.74 184.935C170.662 184.797 171.602 186.173 171.855 188.018C172.108 189.864 171.571 191.418 170.649 191.556ZM169.787 185.258C169.049 185.359 168.597 186.814 168.835 188.451C169.072 190.088 169.865 191.358 170.605 191.28C171.345 191.202 171.795 189.724 171.558 188.087C171.343 186.448 170.527 185.18 169.787 185.258Z" fill="#F5F6FA"/>
<path d="M176.542 200.719C177.382 200.606 177.872 199.101 177.636 197.358C177.401 195.616 176.529 194.295 175.69 194.409C174.85 194.522 174.36 196.027 174.596 197.769C174.831 199.512 175.703 200.833 176.542 200.719Z" fill="#F5F6FA"/>
<path d="M176.579 200.859C175.656 200.974 174.717 199.622 174.464 197.776C174.211 195.931 174.749 194.376 175.671 194.238C176.593 194.1 177.533 195.475 177.786 197.321C178.039 199.167 177.501 200.721 176.579 200.859ZM175.718 194.561C174.979 194.662 174.528 196.117 174.765 197.754C175.003 199.391 175.796 200.661 176.536 200.583C177.276 200.505 177.726 199.027 177.488 197.39C177.274 195.751 176.458 194.483 175.718 194.561Z" fill="#F5F6FA"/>
<path d="M220.507 185.932C221.346 185.818 221.836 184.314 221.6 182.571C221.365 180.828 220.493 179.508 219.654 179.621C218.814 179.735 218.325 181.239 218.56 182.982C218.796 184.725 219.667 186.045 220.507 185.932Z" fill="#F5F6FA"/>
<path d="M220.509 186.053C219.585 186.168 218.647 184.816 218.394 182.97C218.141 181.125 218.678 179.57 219.6 179.432C220.522 179.294 221.463 180.669 221.716 182.515C221.969 184.361 221.431 185.915 220.509 186.053ZM219.669 179.73C218.931 179.831 218.479 181.286 218.716 182.923C218.954 184.56 219.747 185.83 220.487 185.752C221.227 185.674 221.677 184.196 221.439 182.559C221.225 180.92 220.409 179.652 219.669 179.73Z" fill="#F5F6FA"/>
<path d="M226.409 195.206C227.249 195.093 227.738 193.588 227.503 191.845C227.267 190.103 226.396 188.782 225.556 188.895C224.717 189.009 224.227 190.514 224.463 192.256C224.698 193.999 225.57 195.32 226.409 195.206Z" fill="#F5F6FA"/>
<path d="M226.438 195.333C225.515 195.448 224.576 194.096 224.323 192.25C224.07 190.404 224.607 188.85 225.529 188.712C226.451 188.574 227.392 189.949 227.645 191.795C227.898 193.64 227.36 195.195 226.438 195.333ZM225.577 189.034C224.838 189.136 224.387 190.591 224.624 192.228C224.862 193.865 225.655 195.134 226.395 195.056C227.135 194.978 227.585 193.5 227.347 191.863C227.133 190.224 226.317 188.956 225.577 189.034Z" fill="#F5F6FA"/>
</svg>
