<svg width="380" height="580" viewBox="0 0 380 580" fill="none" xmlns="http://www.w3.org/2000/svg">
<path d="M212.788 209.596C224.804 207.972 231.685 185.502 228.159 159.408C224.632 133.314 212.032 113.476 200.016 115.1C188.001 116.724 181.119 139.195 184.646 165.289C188.173 191.383 200.773 211.22 212.788 209.596Z" fill="#F5F6FA"/>
<path d="M158.057 216.939C170.073 215.315 176.954 192.845 173.428 166.751C169.901 140.656 157.301 120.819 145.285 122.443C133.27 124.067 126.388 146.537 129.915 172.632C133.442 198.726 146.042 218.563 158.057 216.939Z" fill="#F5F6FA"/>
<path d="M195.539 399.677L168.139 538.936C168.065 539.627 167.161 539.756 166.906 539.11C164.579 533.197 157.056 520.483 136.473 524.953C111.559 530.388 108.526 570.012 108.387 573.469L110.788 573.469L166.787 573.469L197.223 573.469L206.454 382.983L195.518 399.679L195.539 399.677Z" fill="#F5F6FA"/>
<path d="M228.262 392.835L264.137 530.636C264.249 531.313 265.944 535.048 266.165 534.388C268.129 528.366 286.402 522.383 297.377 525.47C322.001 532.396 323.229 568.655 323.588 572.118C323.604 572.324 323.47 572.479 323.284 572.493L268.909 572.118L234.952 572.118L214.222 384.112L228.282 392.834L228.262 392.835Z" fill="#F5F6FA"/>
<path d="M133.592 371.63L93.989 355.347C96.2451 349.344 98.6504 343.393 101.227 337.512C102.505 334.573 103.845 331.628 105.209 328.724L108.49 321.981L108.942 321.075L109.45 320.083L110.487 318.095L112.561 314.121C118.184 303.654 124.335 293.874 130.566 285.729C131.339 284.675 132.119 283.704 132.902 282.774L135.248 279.963C136.81 278.331 138.375 276.471 139.917 275.132C140.675 274.432 141.466 273.605 142.231 273.009L144.504 271.159C145.984 270.115 147.501 269.006 148.922 268.278C151.815 266.672 154.566 265.68 157.228 265.172C159.914 264.703 162.49 264.43 165.413 265.21L167.883 265.755C168.753 266.002 169.898 266.042 170.645 266.589L174.475 268.673C175.576 269.236 176.522 269.955 177.414 270.782C178.304 271.588 179.159 272.481 179.982 273.5C181.626 275.517 183.179 277.978 184.48 281.246C185.78 284.514 186.772 288.657 187.321 293.559C188.461 303.36 188.172 315.468 187.684 327.404C187.484 332.009 187.248 336.678 186.967 341.309L186.271 352.679L185.371 366.64C184.807 375.861 184.241 385.061 184.028 393.695C183.978 395.838 183.967 397.937 183.987 399.887C184.005 401.817 184.101 403.679 184.206 404.814C184.219 405 184.244 405.33 184.263 405.308L184.264 405.329C184.264 405.329 184.368 405.321 183.958 405.393L182.321 405.722L180.906 405.972C179.964 406.145 179.023 406.339 178.085 406.575L176.678 406.928C176.19 407.068 175.741 407.184 175.393 407.251C174.618 407.433 173.864 407.634 173.114 407.877L171.98 408.272C171.596 408.425 171.213 408.578 170.948 408.639C170.359 408.828 169.774 409.058 169.192 409.33C168.912 409.475 168.632 409.62 168.352 409.765C168.11 409.866 167.929 409.942 167.709 410.062C167.31 410.279 166.915 410.557 166.563 410.853C166.325 410.995 166.089 411.179 165.901 411.442C165.789 411.616 165.768 411.618 165.73 411.662C165.692 411.707 165.655 411.772 165.639 411.835C165.639 411.835 165.708 411.643 165.683 411.583C165.68 411.541 165.676 411.5 165.673 411.459C165.664 411.335 165.652 411.17 165.641 411.025C165.599 410.737 165.478 410.497 165.334 410.238C165.175 409.772 164.998 409.349 164.761 408.951C164.643 408.752 164.524 408.553 164.386 408.376C164.317 408.278 164.25 408.22 164.179 408.101L163.92 407.684C163.212 406.532 162.441 405.654 161.491 404.603C160.44 403.31 159.312 402.106 158.129 400.989C157.575 400.51 156.832 399.735 156.115 399.019C155.397 398.304 154.662 397.631 153.906 396.96L153.35 396.461C153.128 396.27 152.951 396.117 153.019 396.195C153.019 396.195 153.04 396.194 153.057 396.151C153.151 396.019 153.229 395.951 153.416 395.667C154.075 394.746 155.018 393.181 155.957 391.554C156.914 389.885 157.88 388.069 158.844 386.211C160.788 382.454 162.717 378.49 164.621 374.466C172.272 358.283 179.655 341.289 187.309 324.296C191.145 315.789 195.04 307.235 199.139 298.625C201.209 294.318 203.32 290.009 205.551 285.628C207.804 281.266 210.157 276.856 212.91 272.25C214.317 269.923 215.804 267.571 217.628 264.985L219.121 262.985C219.711 262.256 220.202 261.597 220.892 260.819C221.62 259.997 222.172 259.312 223.161 258.367C223.626 257.917 224.052 257.491 224.557 257.017C225.181 256.473 225.807 255.949 226.455 255.444C226.963 255.012 228.111 254.242 229.024 253.676C229.521 253.369 229.938 253.11 230.537 252.796C231.279 252.429 232.022 252.084 232.788 251.778C233.575 251.47 234.281 251.19 235.177 250.937C236.316 250.624 237.504 250.391 238.697 250.24C239.293 250.155 239.892 250.11 240.47 250.068C240.78 250.045 241.028 250.026 241.403 250.04L242.548 250.08C244.07 250.155 245.603 250.394 247.104 250.74C248.432 251.016 250.419 251.762 252.105 252.655C252.969 253.11 253.795 253.61 254.582 254.133C255.282 254.622 255.945 255.154 256.589 255.73C257.234 256.305 257.86 256.902 258.446 257.524C258.739 257.834 259.033 258.166 259.283 258.459L259.878 259.204C260.639 260.228 261.364 261.316 261.986 262.433C262.514 263.391 262.815 264.096 263.17 264.962C263.522 265.788 263.84 266.72 264.002 267.227C264.357 268.384 264.736 269.852 264.856 270.632C265.231 272.619 265.333 274.003 265.433 275.345L265.503 277.147L265.494 278.705C265.456 280.722 265.351 282.392 265.197 283.961C264.594 290.132 263.649 295.04 262.725 299.968C261.777 304.836 260.773 309.52 259.765 314.143C257.747 323.368 255.709 332.324 253.947 341.073C253.065 345.437 252.262 349.754 251.594 353.915C250.924 358.056 250.414 362.123 250.231 365.542C250.126 367.211 250.136 368.747 250.2 369.615L250.233 370.069L250.237 370.111L247.001 370.724C246.489 370.824 245.959 370.967 245.449 371.087L244.676 371.311L244.023 371.463C243.146 371.673 242.293 371.944 241.425 372.278C239.942 372.72 238.519 373.427 237.56 373.934C235.503 375.042 234.861 376.19 234.974 376.036C234.886 376.25 235.077 375.738 235.061 375.801L235.064 375.843C235.064 375.843 234.992 375.993 234.977 376.077L234.945 376.204C234.945 376.204 234.944 375.914 234.917 375.833C234.898 375.564 234.811 375.238 234.707 374.955C234.243 373.453 232.835 370.981 230.334 368.051C229.77 367.449 229.017 366.529 228.298 365.793L225.922 363.434L225.275 362.818L224.94 362.51L225.034 362.379C225.36 362.002 226.139 360.739 226.888 359.355C227.273 358.662 227.672 357.885 228.068 357.066L228.661 355.818L229.304 354.4L229.997 352.812C233.671 344.358 236.784 335.343 239.949 326.179C243.098 317.078 246.241 307.625 249.581 299.715C250.383 297.911 251.401 295.676 251.861 294.873L252.733 293.189L253.622 291.732C254.212 290.712 254.795 289.901 255.381 289.11C255.981 288.235 256.542 287.674 257.111 286.947C259.411 284.347 261.509 282.946 263.436 281.765C264.391 281.196 265.321 280.857 266.188 280.502C267.07 280.084 267.923 279.813 268.759 279.606L275.183 280.543C275.604 280.616 276.172 280.719 276.723 280.866C277.274 281.012 277.639 281.172 277.983 281.333C278.368 281.492 278.673 281.677 278.977 281.862C279.302 282.046 279.566 282.234 279.829 282.422C280.903 283.194 281.776 284.044 282.637 285.018C284.338 286.949 285.814 289.498 287.32 292.46C287.691 293.263 288.056 293.984 288.393 294.894L289.408 297.664L290.417 300.642C290.759 301.614 291.039 302.881 291.349 303.979C293.823 313.287 294.777 327.318 295.45 339.791L296.422 357.995C296.572 360.871 296.784 363.742 297.002 366.405L297.269 370.019L297.455 372.539C297.576 374.171 297.72 375.842 297.926 377.219C298.023 377.98 298.127 378.533 298.211 379.108C298.247 379.313 298.281 379.498 298.298 379.725C298.299 379.746 298.256 379.728 298.237 379.75L297.843 380.028L297.293 380.464L296.766 380.918L296.513 381.144C295.984 381.578 297.102 380.686 296.885 380.847L296.65 381.03C296.336 381.282 296.024 381.554 295.712 381.827L294.896 382.593C294.447 382.979 293.972 383.575 293.722 383.843C293.073 384.618 292.97 385.186 293.011 385.183C293.027 385.119 292.744 384.663 291.85 384.085L291.525 383.901L291.111 383.641C290.829 383.475 290.549 383.35 290.25 383.227C289.515 382.845 288.743 382.508 287.89 382.218C286.371 381.603 286.907 381.834 286.84 381.776L286.915 381.667C286.915 381.667 287.044 381.45 287.115 381.278C287.259 380.977 287.397 380.593 287.555 380.207L289.472 374.957C292.154 367.698 295.586 360.736 299.603 354.396C307.655 341.672 317.886 331.176 328.965 322.32C320.092 334.045 312.862 346.936 308.603 360.397C306.445 367.16 305.155 373.881 304.43 380.933L304.119 383.739C303.987 384.766 303.913 385.727 303.499 387.44C303.387 387.884 303.22 388.437 302.941 389.163C302.871 389.335 302.746 389.614 302.658 389.828C302.532 390.087 302.479 390.215 302.259 390.605C302.077 390.951 301.872 391.278 301.646 391.585C301.344 392.002 300.907 392.553 300.503 392.978L300.155 393.336L299.609 393.812C299.236 394.11 298.842 394.388 298.445 394.646C298.109 394.878 297.51 395.193 296.904 395.425C296.298 395.656 295.689 395.847 295.055 395.977C293.848 396.232 292.436 396.232 291.258 396.029C290.332 395.869 289.333 395.548 288.557 395.169C287.997 394.899 287.456 394.607 286.952 394.249C286.493 393.93 286.293 393.758 285.962 393.492L285.518 393.109L285.228 392.84L284.69 392.298C284.375 391.969 284.193 391.754 283.942 391.461L283.436 390.792C283.113 390.359 282.789 389.905 282.485 389.45C282.137 388.957 281.989 388.635 281.776 388.277L281.177 387.2C279.795 384.519 278.945 382.298 278.208 380.192C277.449 378.068 276.823 376.058 276.219 374.067C275.982 373.399 275.807 372.997 275.622 372.45L275.124 371.345L274.234 369.417C273.669 368.233 273.14 367.255 272.667 366.48C271.701 364.931 270.839 364.226 270.059 364.346C269.279 364.466 268.602 365.43 267.947 367.244C267.776 367.734 267.619 368.14 267.383 368.885C267.192 369.667 267.105 370.463 267.014 371.196C266.854 372.683 266.804 373.974 266.823 375.073C266.823 375.073 266.823 375.073 266.821 375.053L266.642 375.44L265.741 377.292C265.127 378.542 264.472 379.795 263.76 381.115C262.313 383.735 260.767 386.424 258.346 389.635C257.153 391.198 255.664 392.969 253.624 394.865C251.58 396.719 248.744 399.088 243.897 400.942C241.472 401.848 238.447 402.508 235.187 402.52C233.567 402.515 231.871 402.329 230.25 402.034C228.709 401.691 227.158 401.224 225.681 400.627C224.201 399.989 222.711 399.226 221.4 398.347C220.11 397.466 218.788 396.443 217.716 395.421C216.709 394.437 215.67 393.309 214.866 392.268C214.129 391.284 213.408 390.236 212.791 389.202C210.549 385.276 209.749 382.324 209.077 379.695L208.69 377.833L208.422 376.171C208.233 375.022 208.165 374.093 208.048 373.084C207.722 369.224 207.802 366.103 207.935 363.123C208.07 360.164 208.346 357.444 208.649 354.805C209.888 344.309 211.795 334.988 213.707 325.73L219.533 298.904C220.459 294.578 221.326 290.298 222.028 286.3C222.378 284.301 222.672 282.369 222.878 280.671C222.983 279.833 223.068 279.017 223.106 278.412L223.15 277.598L223.133 277.371L223.146 277.266C223.146 277.266 223.022 277.276 223.27 277.257C230.609 277.089 236.321 276.251 239.433 275.086C240.144 274.868 240.897 274.376 241.235 274.185C241.724 273.775 241.844 273.704 241.971 273.466L241.857 273.89C241.857 273.89 241.864 273.972 241.844 273.994C241.847 274.036 241.849 274.056 241.85 274.077L241.854 274.118L241.866 274.284C241.883 274.511 241.898 274.717 241.954 274.921C242.301 276.806 244.587 280.749 248.204 284.739C249.165 285.935 250.183 287.064 251.238 288.128L252.874 289.752L252.836 289.796C252.836 289.796 252.719 289.909 252.569 290.127C251.999 290.834 251.059 292.17 250.149 293.629C249.201 295.132 248.222 296.783 247.25 298.516C243.323 305.515 239.463 313.422 235.709 321.362C231.938 329.346 228.243 337.511 224.552 345.738C217.151 362.214 209.91 378.886 201.839 395.847C199.808 400.109 197.693 404.378 195.361 408.787C194.175 411.013 192.989 413.219 191.587 415.608C190.144 417.999 188.723 420.409 186.337 423.534C185.828 424.236 184.929 425.279 184.183 426.144C183.084 427.285 182.28 428.216 180.239 429.821L179.551 430.349C179.295 430.534 179.158 430.648 178.701 430.931C177.929 431.445 177.111 431.9 176.292 432.335C175.872 432.553 175.471 432.748 175.05 432.946C174.889 433.02 174.607 433.145 174.203 433.299L173.09 433.693C171.591 434.198 170.017 434.543 168.454 434.742C168.125 434.787 167.588 434.826 166.966 434.852C166.387 434.874 165.805 434.875 165.222 434.856C164.036 434.819 162.862 434.677 161.702 434.431C160.521 434.186 159.464 433.932 158.288 433.479C157.133 433.024 155.972 432.487 154.865 431.842C153.78 431.216 152.663 430.426 151.801 429.721C151.159 429.187 150.555 428.609 149.949 427.989C149.364 427.389 148.798 426.745 148.271 426.078C148.021 425.785 147.698 425.352 147.557 425.134L147.136 424.5C146.575 423.649 146.052 422.753 145.589 421.832C145.322 421.312 145.199 421.051 145.075 420.769L144.696 419.863C144.445 419.279 144.211 418.632 144.003 418.066L143.597 416.787L143.23 415.485L143.011 414.484C142.881 413.85 142.701 413.094 142.645 412.621L142.38 411L142.214 409.6C142.079 408.613 142.046 407.889 141.961 407.023C141.497 400.744 141.637 395.894 141.725 390.904C141.997 381.102 142.579 371.838 143.144 362.617L144.159 346.571L133.617 371.4L133.592 371.63Z" fill="#00C0D8"/>
<path d="M212.056 210.674C198.568 212.501 185.142 192.705 181.479 165.625C177.816 138.544 185.508 115.9 198.997 114.072C212.485 112.244 225.911 132.04 229.574 159.121C233.237 186.201 225.545 208.846 212.056 210.674ZM199.465 117.589C188.258 119.102 181.562 140.905 184.851 165.168C188.141 189.451 200.382 208.671 211.589 207.157C222.795 205.643 229.491 183.841 226.202 159.578C222.912 135.294 210.671 116.075 199.465 117.589Z" fill="#F5F6FA"/>
<path d="M158.204 217.957C144.715 219.785 131.289 199.988 127.626 172.908C123.963 145.828 131.656 123.183 145.144 121.355C158.633 119.527 172.058 139.324 175.722 166.404C179.385 193.484 171.692 216.129 158.204 217.957ZM145.612 124.872C134.405 126.385 127.71 148.188 130.999 172.451C134.289 196.735 146.529 215.954 157.736 214.44C168.943 212.926 175.638 191.124 172.349 166.861C169.061 142.598 156.819 123.358 145.612 124.872Z" fill="#F5F6FA"/>
<path d="M157.93 194.59C162.816 193.93 165.662 185.152 164.288 174.984C162.914 164.816 157.839 157.109 152.954 157.769C148.068 158.43 145.221 167.208 146.596 177.375C147.97 187.543 153.045 195.251 157.93 194.59Z" fill="#0F1029"/>
<path d="M158.056 195.455C152.628 196.189 147.227 188.302 145.763 177.486C144.299 166.67 147.411 157.635 152.839 156.901C158.268 156.168 163.669 164.055 165.133 174.871C166.597 185.686 163.485 194.722 158.056 195.455ZM153.091 158.627C148.753 159.218 146.184 167.736 147.468 177.235C148.752 186.735 153.504 194.276 157.842 193.685C162.181 193.094 164.749 184.577 163.466 175.077C162.182 165.577 157.43 158.036 153.091 158.627Z" fill="#0F1029"/>
<path d="M204.578 189.379C209.463 188.718 212.31 179.94 210.936 169.772C209.561 159.604 204.487 151.897 199.601 152.557C194.715 153.218 191.869 161.996 193.243 172.164C194.618 182.331 199.692 190.039 204.578 189.379Z" fill="#0F1029"/>
<path d="M204.71 190.241C199.282 190.975 193.881 183.088 192.417 172.272C190.953 161.457 194.064 152.421 199.493 151.687C204.921 150.954 210.322 158.841 211.787 169.657C213.251 180.472 210.139 189.508 204.71 190.241ZM199.745 153.413C195.407 154.004 192.838 162.522 194.122 172.021C195.405 181.521 200.158 189.062 204.496 188.471C208.835 187.881 211.403 179.363 210.12 169.863C208.836 160.363 204.083 152.823 199.745 153.413Z" fill="#0F1029"/>
<path d="M184.189 225.61C182.153 225.885 180.344 225.852 178.87 225.588C176.346 225.151 174.461 224.086 173.369 222.526C172.278 220.966 171.927 218.749 172.338 216.164C173.031 211.772 176.306 205.217 183.399 200.041L185.378 202.927C179.131 207.48 176.284 213.069 175.706 216.767C175.451 218.385 175.614 219.743 176.126 220.495C176.639 221.246 177.846 221.842 179.403 222.121C182.98 222.75 189.015 221.785 195.216 217.173L197.215 220.057C192.608 223.471 187.995 225.121 184.17 225.632L184.189 225.61Z" fill="#F5F6FA"/>
<path d="M167.145 67.2275L163.737 67.4794C163.694 66.901 163.654 66.364 163.573 65.83C163.246 62.8014 162.931 59.6679 165.483 53.4566C167.192 49.3221 170.63 46.0982 174.943 44.3257C174.821 40.4303 175.44 36.4387 177.101 32.7854C178.889 28.8735 181.965 25.2609 185.493 22.695C185.827 18.7867 186.999 14.6919 189.233 10.9132L192.153 12.7741C190.659 15.3144 189.712 17.9596 189.215 20.5092C192.852 18.849 196.684 18.4411 199.96 20.0473C203.364 21.7063 206.248 25.6052 207.321 30.0117C208.122 33.2546 207.733 36.1493 206.264 38.1893C204.776 40.2514 202.084 41.4888 198.872 41.5808C195.93 41.6737 192.934 40.7529 190.862 39.1408C187.908 36.8255 185.941 32.402 185.497 27.2428C183.278 29.2552 181.385 31.7418 180.205 34.3212C178.917 37.1163 178.377 40.209 178.374 43.2621C179.62 42.9831 180.896 42.8265 182.223 42.7907C188.544 42.6142 193.9 45.3958 196.24 50.0825C197.385 52.3654 196.847 55.4788 194.772 58.602C192.677 61.7266 189.056 64.7149 185.702 64.2982C183.125 63.9903 180.568 61.7079 178.519 57.8719C177.05 55.1353 175.883 51.7118 175.321 48.0359C172.555 49.3826 170.037 51.5625 168.661 54.8624C166.44 60.2185 166.703 62.6497 166.994 65.4733C167.037 66.0517 167.121 66.6269 167.166 67.2259L167.145 67.2275ZM178.598 46.8591C179.045 50.3774 180.12 53.6831 181.468 56.1794C182.912 58.8556 184.662 60.6161 186.045 60.7839C187.658 60.9761 190.242 59.1237 191.943 56.5682C193.234 54.6452 193.714 52.7198 193.201 51.6778C191.493 48.232 187.334 46.1927 182.36 46.3319C181.178 46.3569 179.902 46.5136 178.598 46.8591ZM188.802 24.7556C188.756 30.034 190.538 34.4712 192.918 36.3305C194.373 37.4691 196.56 38.1174 198.757 38.0588C200.892 38.0048 202.664 37.2508 203.532 36.0652C204.38 34.9018 204.551 32.9993 204.019 30.858C203.216 27.5738 200.949 24.4393 198.536 23.2677C195.714 21.8979 192.12 22.7243 188.802 24.7556Z" fill="#F5F6FA"/>
<path d="M176.598 92.0106C176.432 92.2929 174.535 95.569 176.803 97.8727C179.654 100.756 185.595 98.5313 196.045 100.542C204.892 102.235 209.281 104.298 209.281 104.298C209.281 104.298 205.256 89.4562 192.717 87.5586C187.193 86.7208 179.094 87.8387 176.598 92.0106Z" fill="#F5F6FA"/>
<path d="M155.625 94.8485C155.848 95.0604 158.56 97.7467 156.981 100.543C154.999 104.074 148.686 103.523 139.128 108.238C131.053 112.22 127.362 115.379 127.362 115.379C127.362 115.379 127.306 100.015 138.886 94.8397C143.993 92.5724 152.096 91.4958 155.604 94.85L155.625 94.8485Z" fill="#F5F6FA"/>
<path d="M333.701 354.638C333.601 355.247 334.372 356.686 333.63 356.761C311.393 354.874 291.373 341.671 280.731 321.316C279.715 319.377 275.813 309.282 275.227 308.951C271.672 306.929 269.38 310.193 270.297 314.175C275.937 338.783 303.121 358.435 326.088 362.905C327.984 363.264 333.904 363.283 334.754 363.822C335.975 364.604 336.491 368.221 339.77 369.308C340.228 369.046 340.17 368.822 339.677 368.609C339.07 366.577 338.163 364.422 336.934 362.124C336.694 359.442 335.898 357.383 334.544 355.925C334.509 354.889 334.207 354.455 333.681 354.639L333.701 354.638Z" fill="#F5F6FA"/>
<path d="M334.092 355.148L334.957 356.455L336.347 355.874C336.632 353.548 337.345 351.107 339.116 349.502C338.169 352.708 339.905 356.525 342.693 353.225C343.167 343.055 353.339 343.279 358.675 350.008C362.408 354.716 365.306 370.036 355.28 364.194C350.126 349.539 345.326 358.492 352.79 367.037C357.064 368.673 358.974 374.554 352.481 372.127C348.101 370.477 345.335 365.926 343.769 361.598C339.25 358.9 340.226 365.639 342.544 368.064C341.534 368.159 340.711 368.552 340.12 369.261L340.213 369.96C342.576 370.741 343.872 369.731 345.742 370.299C346.846 370.633 348.918 373.096 350.388 373.881C354.559 376.085 356.503 374.841 360.311 375.224C362.256 375.412 364.118 376.998 366.241 377.07C372.255 377.228 378.439 371.828 377.336 365.326C377.078 363.808 375.69 362.166 375.643 361.256C375.492 358.09 380.64 356.089 375.711 349.247C373.349 345.954 373.251 345.753 371.275 342.057C367.763 335.567 357.741 334.834 352.136 338.529C350.098 339.884 349.214 342.255 347.7 343.135C344.973 344.728 340.264 345.928 337.977 347.301C335.63 348.7 334.458 352.504 334.07 355.129L334.092 355.148Z" fill="#75787F"/>
<path d="M340.119 369.261C341.456 369.931 342.89 369.659 344.243 369.414C345.174 368.244 339.806 363.054 342.518 361.815C344.506 369.041 350.84 375.779 358.569 373.858C357.485 372.401 357.589 368.759 356.919 367.833C356.802 367.655 354.347 366.756 353.333 365.689C350.947 363.186 350.29 359.912 350.06 356.523L354.333 365.158C364.532 371.652 364.868 359.623 361.488 352.106C356.694 341.474 341.44 340.213 341.399 353.425C338.512 353.14 341.668 348.068 341.334 347.76C337.177 346.593 334.987 353.213 334.955 356.435C334.936 360.112 336.579 367.446 340.119 369.261Z" fill="#F5F6FA"/>
<path d="M350.306 342.984C355.155 342.564 358.762 345.848 361.419 349.764C363.607 352.946 362.82 356.638 367.649 354.537C374.835 351.451 372.02 340.611 365.48 338.394C363.136 337.592 357.865 337.358 355.486 338.053C354.51 338.333 348.774 341.934 350.285 342.986L350.306 342.984Z" fill="#F5F6FA"/>
<path d="M357.826 368.306C359.215 380.913 379.762 376.237 375.792 364.112C374.665 360.664 371.652 364.293 369.332 364.652C367.711 364.917 366.012 364.129 364.567 364.526C362.673 365.04 361.579 369.337 357.826 368.306Z" fill="#F5F6FA"/>
<path d="M363.737 356.114L364.762 363.805C373.998 364.576 380.889 356.092 373.324 348.427C371.961 353.035 368.864 357.209 363.737 356.114Z" fill="#F5F6FA"/>
<path d="M344.017 357.363L349.003 358.801C349.185 356.483 345.223 357.669 344.017 357.363Z" fill="#595959"/>
<path d="M333.701 354.638C333.601 355.247 334.372 356.686 333.63 356.761C311.393 354.874 291.373 341.671 280.731 321.316C279.715 319.377 275.813 309.282 275.227 308.951C271.672 306.929 269.38 310.193 270.297 314.175C275.937 338.783 303.121 358.435 326.088 362.905C327.984 363.264 333.904 363.283 334.754 363.822C335.975 364.604 336.491 368.221 339.77 369.308C340.228 369.046 340.17 368.822 339.677 368.609C339.07 366.577 338.163 364.422 336.934 362.124C336.694 359.442 335.898 357.383 334.544 355.925C334.509 354.889 334.207 354.455 333.681 354.639L333.701 354.638Z" fill="#F5F6FA"/>
<path d="M340.119 369.261C341.456 369.931 342.89 369.659 344.243 369.414C345.174 368.244 339.806 363.054 342.518 361.815C344.506 369.041 350.84 375.779 358.569 373.858C357.485 372.401 357.589 368.759 356.919 367.833C356.802 367.655 354.347 366.756 353.333 365.689C350.947 363.186 350.29 359.912 350.06 356.523L354.333 365.158C364.532 371.652 364.868 359.623 361.488 352.106C356.694 341.474 341.44 340.213 341.399 353.425C338.512 353.14 341.668 348.068 341.334 347.76C337.177 346.593 334.987 353.213 334.955 356.435C334.936 360.112 336.579 367.446 340.119 369.261Z" fill="#F5F6FA"/>
<path d="M350.306 342.984C355.155 342.564 358.762 345.848 361.419 349.764C363.607 352.946 362.82 356.638 367.649 354.537C374.835 351.451 372.02 340.611 365.48 338.394C363.136 337.592 357.865 337.358 355.486 338.053C354.51 338.333 348.774 341.934 350.285 342.986L350.306 342.984Z" fill="#F5F6FA"/>
<path d="M357.826 368.306C359.215 380.913 379.762 376.237 375.792 364.112C374.665 360.664 371.652 364.293 369.332 364.652C367.711 364.917 366.012 364.129 364.567 364.526C362.673 365.04 361.579 369.337 357.826 368.306Z" fill="#F5F6FA"/>
<path d="M363.737 356.114L364.762 363.805C373.998 364.576 380.889 356.092 373.324 348.427C371.961 353.035 368.864 357.209 363.737 356.114Z" fill="#F5F6FA"/>
<path d="M344.017 357.363L349.003 358.801C349.185 356.483 345.223 357.669 344.017 357.363Z" fill="#595959"/>
<path d="M68.6914 373.142L67.8263 374.449L66.4363 373.868C66.1514 371.542 65.4387 369.101 63.6675 367.496C64.6143 370.702 62.8784 374.519 60.0903 371.219C59.6167 361.049 49.4446 361.273 44.1084 368.002C40.3752 372.711 37.4775 388.031 47.5041 382.188C52.6578 367.533 57.458 376.486 49.9938 385.031C45.7193 386.667 43.8101 392.548 50.3029 390.121C54.6822 388.472 57.4485 383.92 59.0145 379.592C63.5336 376.894 62.5578 383.633 60.2395 386.058C61.2501 386.153 62.0725 386.547 62.6639 387.255L62.5707 387.954C60.2078 388.735 58.9117 387.725 57.0422 388.293C55.9376 388.627 53.8656 391.09 52.3954 391.875C48.2243 394.079 46.281 392.835 42.473 393.218C40.5276 393.407 38.6659 394.993 36.5423 395.064C30.5288 395.222 24.3445 389.822 25.4481 383.32C25.7057 381.802 27.0939 380.161 27.1404 379.25C27.2913 376.084 22.1434 374.083 27.0727 367.241C29.4345 363.948 29.5323 363.747 31.5085 360.051C35.0203 353.561 45.0431 352.828 50.6472 356.523C52.6862 357.878 53.5701 360.249 55.0833 361.129C57.8108 362.722 62.5195 363.922 64.8063 365.295C67.1535 366.694 68.326 370.498 68.7135 373.123L68.6914 373.142Z" fill="#75787F"/>
<path d="M69.0819 372.632C69.1822 373.242 68.4113 374.68 69.1533 374.755C91.3898 372.869 111.41 359.666 122.052 339.311C123.068 337.371 126.971 327.276 127.556 326.945C131.111 324.923 133.404 328.187 132.486 332.169C126.846 356.778 99.6621 376.429 76.6948 380.899C74.7992 381.258 68.8789 381.277 68.0291 381.816C66.8083 382.598 66.2918 386.215 63.0132 387.302C62.5549 387.04 62.613 386.816 63.1064 386.603C63.7135 384.571 64.6204 382.416 65.8494 380.119C66.0892 377.436 66.8852 375.377 68.239 373.919C68.2741 372.884 68.5762 372.449 69.1025 372.633L69.0819 372.632Z" fill="#F5F6FA"/>
<path d="M62.6639 387.256C61.3268 387.925 59.8932 387.653 58.5406 387.408C57.6095 386.238 62.9773 381.048 60.2653 379.81C58.2774 387.035 51.9436 393.773 44.2146 391.852C45.2984 390.396 45.1938 386.753 45.8645 385.827C45.9815 385.649 48.4363 384.75 49.4497 383.683C51.8361 381.18 52.4935 377.906 52.7232 374.517L48.4505 383.152C38.2512 389.646 37.915 377.618 41.2951 370.1C46.0891 359.468 61.3428 358.208 61.3839 371.419C64.2709 371.134 61.1153 366.062 61.4496 365.754C65.6063 364.587 67.796 371.208 67.8279 374.429C67.8468 378.106 66.204 385.44 62.6639 387.256Z" fill="#F5F6FA"/>
<path d="M52.4779 360.978C47.6286 360.558 44.0214 363.842 41.3645 367.758C39.1771 370.94 39.9633 374.632 35.1344 372.531C27.9484 369.445 30.7641 358.605 37.3037 356.389C39.6475 355.586 44.919 355.352 47.2974 356.047C48.2736 356.327 54.0093 359.929 52.4986 360.98L52.4779 360.978Z" fill="#F5F6FA"/>
<path d="M44.9567 386.3C43.568 398.907 23.0211 394.232 26.9911 382.106C28.1181 378.659 31.1312 382.287 33.4515 382.646C35.0725 382.911 36.7715 382.123 38.2166 382.52C40.11 383.034 41.2046 387.331 44.9567 386.3Z" fill="#F5F6FA"/>
<path d="M39.0466 374.108L38.0212 381.799C28.7848 382.57 21.894 374.086 29.4593 366.421C30.8217 371.029 33.919 375.204 39.0466 374.108Z" fill="#F5F6FA"/>
<path d="M58.7666 375.357L53.7798 376.796C53.5982 374.477 57.5603 375.663 58.7666 375.357Z" fill="#595959"/>
<path d="M152.043 170.589C152.792 170.488 153.228 169.147 153.018 167.594C152.808 166.041 152.031 164.864 151.283 164.965C150.535 165.066 150.099 166.407 150.309 167.96C150.519 169.513 151.295 170.69 152.043 170.589Z" fill="#F5F6FA"/>
<path d="M152.074 170.706C151.25 170.808 150.414 169.603 150.188 167.959C149.963 166.314 150.442 164.929 151.264 164.805C152.085 164.682 152.923 165.908 153.149 167.553C153.374 169.198 152.895 170.583 152.074 170.706ZM151.306 165.093C150.648 165.183 150.245 166.48 150.457 167.939C150.668 169.398 151.375 170.529 152.035 170.46C152.694 170.39 153.095 169.073 152.883 167.614C152.692 166.154 151.965 165.024 151.306 165.093Z" fill="#F5F6FA"/>
<path d="M157.327 178.871C158.075 178.77 158.511 177.429 158.301 175.876C158.091 174.323 157.315 173.146 156.567 173.248C155.818 173.349 155.382 174.69 155.592 176.243C155.802 177.796 156.578 178.972 157.327 178.871Z" fill="#F5F6FA"/>
<path d="M157.359 178.996C156.536 179.098 155.699 177.893 155.474 176.249C155.248 174.604 155.728 173.219 156.549 173.096C157.371 172.972 158.209 174.198 158.434 175.843C158.66 177.488 158.181 178.873 157.359 178.996ZM156.591 173.383C155.933 173.473 155.531 174.77 155.742 176.229C155.954 177.688 156.661 178.819 157.32 178.75C157.98 178.68 158.381 177.363 158.169 175.904C157.978 174.444 157.251 173.314 156.591 173.383Z" fill="#F5F6FA"/>
<path d="M196.505 165.694C197.253 165.592 197.69 164.252 197.48 162.699C197.27 161.146 196.493 159.969 195.745 160.07C194.997 160.171 194.561 161.512 194.771 163.065C194.981 164.618 195.757 165.795 196.505 165.694Z" fill="#F5F6FA"/>
<path d="M196.507 165.802C195.684 165.904 194.847 164.699 194.622 163.054C194.396 161.41 194.876 160.024 195.697 159.901C196.519 159.778 197.357 161.004 197.582 162.649C197.808 164.293 197.329 165.679 196.507 165.802ZM195.758 160.167C195.1 160.257 194.698 161.553 194.909 163.012C195.121 164.471 195.828 165.603 196.487 165.533C197.147 165.464 197.548 164.146 197.336 162.688C197.145 161.227 196.418 160.097 195.758 160.167Z" fill="#F5F6FA"/>
<path d="M201.765 173.958C202.513 173.857 202.949 172.516 202.739 170.963C202.529 169.41 201.753 168.233 201.005 168.334C200.256 168.436 199.82 169.777 200.03 171.329C200.24 172.882 201.016 174.059 201.765 173.958Z" fill="#F5F6FA"/>
<path d="M201.791 174.071C200.968 174.174 200.131 172.969 199.906 171.324C199.681 169.679 200.16 168.294 200.981 168.171C201.803 168.048 202.641 169.273 202.867 170.918C203.092 172.563 202.613 173.948 201.791 174.071ZM201.023 168.458C200.365 168.549 199.963 169.845 200.175 171.304C200.386 172.763 201.093 173.894 201.752 173.825C202.412 173.755 202.813 172.438 202.601 170.979C202.41 169.519 201.683 168.389 201.023 168.458Z" fill="#F5F6FA"/>
<path d="M197 255C199.833 242.096 215.224 227.799 231 236.843" stroke="white" stroke-width="4"/>
</svg>
