<svg width="554" height="843" viewBox="0 0 554 843" fill="none" xmlns="http://www.w3.org/2000/svg">
<path d="M310.19 305.537C327.706 303.17 337.738 270.414 332.596 232.376C327.455 194.337 309.088 165.42 291.572 167.787C274.057 170.155 264.025 202.91 269.167 240.949C274.308 278.988 292.675 307.905 310.19 305.537Z" fill="#F5F6FA"/>
<path d="M230.407 316.242C247.923 313.874 257.954 281.119 252.813 243.08C247.672 205.041 229.305 176.124 211.789 178.491C194.273 180.859 184.242 213.614 189.383 251.653C194.525 289.692 212.892 318.609 230.407 316.242Z" fill="#F5F6FA"/>
<path d="M285.046 582.627L245.104 785.631C244.996 786.637 243.678 786.826 243.306 785.884C239.914 777.265 228.947 758.73 198.943 765.247C162.624 773.169 159.936 815.449 159.734 820.489C159.724 820.762 159.924 821.02 160.198 821.03L243.133 835.971L287.146 829.75L300.957 558.291L285.016 582.629L285.046 582.627Z" fill="#F5F6FA"/>
<path d="M332.747 572.653L385.044 773.531C385.208 774.518 386.551 774.661 386.873 773.698C389.736 764.919 399.532 745.909 429.916 751.081C466.676 757.325 471.937 799.411 472.461 804.458C472.483 804.759 472.288 804.985 472.017 805.005L390.966 815.961L347.683 821.825L312.28 559.937L332.777 572.65L332.747 572.653Z" fill="#F5F6FA"/>
<path d="M194.743 541.741L137.012 518.004C140.301 509.254 143.807 500.579 147.563 492.006C149.426 487.721 151.38 483.429 153.367 479.195L158.151 469.366L158.81 468.045L159.551 466.598L161.062 463.701L164.085 457.907C172.282 442.649 181.249 428.393 190.331 416.52C191.459 414.984 192.596 413.567 193.737 412.212L197.158 408.114C199.434 405.736 201.716 403.024 203.963 401.072C205.069 400.052 206.221 398.846 207.337 397.977L210.65 395.28C212.808 393.758 215.019 392.141 217.09 391.08C221.307 388.74 225.317 387.293 229.198 386.552C233.114 385.869 236.869 385.47 241.13 386.608L244.731 387.402C245.999 387.762 247.668 387.82 248.757 388.618L254.34 391.657C255.944 392.476 257.324 393.525 258.624 394.731C259.922 395.906 261.168 397.207 262.368 398.692C264.765 401.633 267.028 405.22 268.924 409.984C270.82 414.748 272.266 420.787 273.067 427.933C274.728 442.221 274.307 459.872 273.595 477.271C273.304 483.983 272.96 490.79 272.55 497.541L271.535 514.116L270.224 534.466C269.401 547.908 268.576 561.32 268.265 573.907C268.193 577.03 268.177 580.089 268.206 582.933C268.232 585.746 268.372 588.461 268.525 590.114C268.545 590.385 268.58 590.867 268.608 590.835L268.61 590.865C268.61 590.865 268.761 590.854 268.163 590.959L265.777 591.438L263.715 591.802C262.341 592.055 260.969 592.338 259.602 592.681L257.551 593.196C256.839 593.4 256.186 593.569 255.679 593.668C254.548 593.933 253.449 594.226 252.355 594.579L250.703 595.156C250.144 595.378 249.585 595.601 249.198 595.691C248.34 595.966 247.487 596.301 246.639 596.697C246.23 596.909 245.822 597.121 245.414 597.333C245.062 597.48 244.797 597.59 244.477 597.765C243.895 598.081 243.32 598.486 242.807 598.918C242.459 599.125 242.115 599.393 241.841 599.776C241.678 600.031 241.648 600.033 241.592 600.098C241.536 600.162 241.483 600.257 241.459 600.35C241.459 600.35 241.56 600.07 241.523 599.982C241.518 599.921 241.514 599.861 241.51 599.801C241.496 599.62 241.478 599.379 241.463 599.169C241.402 598.749 241.224 598.399 241.015 598.021C240.783 597.342 240.525 596.725 240.18 596.145C240.007 595.855 239.834 595.565 239.633 595.308C239.532 595.164 239.435 595.08 239.331 594.906L238.953 594.298C237.921 592.619 236.797 591.34 235.412 589.807C233.88 587.922 232.237 586.167 230.512 584.538C229.704 583.841 228.621 582.71 227.575 581.667C226.529 580.625 225.458 579.644 224.356 578.666L223.546 577.939C223.222 577.66 222.964 577.437 223.063 577.551C223.063 577.551 223.093 577.548 223.119 577.486C223.256 577.294 223.369 577.195 223.642 576.781C224.602 575.439 225.977 573.157 227.346 570.786C228.74 568.351 230.149 565.704 231.554 562.997C234.388 557.52 237.2 551.741 239.976 545.875C251.129 522.284 261.892 497.512 273.048 472.74C278.641 460.338 284.319 447.87 290.293 435.318C293.311 429.041 296.389 422.758 299.64 416.372C302.924 410.014 306.354 403.585 310.369 396.87C312.419 393.479 314.588 390.049 317.246 386.28L319.422 383.364C320.282 382.302 320.998 381.341 322.004 380.207C323.066 379.008 323.87 378.01 325.312 376.632C325.99 375.976 326.61 375.355 327.346 374.665C328.256 373.871 329.169 373.108 330.113 372.372C330.854 371.742 332.527 370.619 333.858 369.794C334.582 369.347 335.19 368.969 336.064 368.511C337.145 367.977 338.228 367.473 339.345 367.027C340.493 366.579 341.522 366.17 342.827 365.801C344.489 365.345 346.22 365.005 347.959 364.786C348.828 364.661 349.701 364.597 350.544 364.534C350.996 364.501 351.357 364.474 351.904 364.494L353.573 364.553C355.791 364.661 358.027 365.011 360.214 365.515C362.151 365.917 365.047 367.004 367.504 368.306C368.764 368.97 369.968 369.698 371.115 370.461C372.136 371.173 373.102 371.949 374.042 372.788C374.982 373.627 375.894 374.498 376.748 375.403C377.175 375.856 377.604 376.339 377.969 376.766L378.836 377.853C379.945 379.345 381.001 380.932 381.909 382.56C382.678 383.956 383.117 384.984 383.634 386.247C384.147 387.45 384.611 388.809 384.847 389.548C385.365 391.236 385.917 393.374 386.092 394.512C386.639 397.408 386.788 399.425 386.933 401.383L387.036 404.009L387.022 406.28C386.967 409.221 386.814 411.654 386.59 413.941C385.71 422.937 384.332 430.093 382.986 437.277C381.603 444.372 380.14 451.201 378.671 457.94C375.729 471.387 372.758 484.443 370.189 497.197C368.904 503.558 367.734 509.851 366.759 515.917C365.783 521.953 365.04 527.882 364.773 532.866C364.62 535.299 364.634 537.539 364.727 538.803L364.776 539.466L364.781 539.526L360.063 540.42C359.317 540.566 358.546 540.774 357.802 540.95L356.675 541.275L355.723 541.497C354.444 541.804 353.202 542.198 351.936 542.685C349.773 543.33 347.7 544.361 346.302 545.1C343.303 546.714 342.367 548.388 342.532 548.164C342.404 548.476 342.681 547.729 342.658 547.822L342.662 547.882C342.662 547.882 342.558 548.101 342.536 548.224L342.49 548.409C342.49 548.409 342.489 547.985 342.45 547.867C342.421 547.476 342.295 547.001 342.143 546.588C341.466 544.398 339.414 540.795 335.768 536.524C334.946 535.646 333.848 534.304 332.8 533.231L329.337 529.794L328.393 528.895L327.905 528.447L328.043 528.255C328.517 527.705 329.652 525.865 330.744 523.847C331.305 522.837 331.888 521.704 332.465 520.511L333.33 518.691L334.267 516.624L335.277 514.309C340.632 501.985 345.171 488.843 349.784 475.485C354.374 462.218 358.956 448.438 363.826 436.907C364.994 434.277 366.478 431.019 367.149 429.849L368.42 427.394L369.717 425.27C370.575 423.784 371.427 422.601 372.28 421.448C373.154 420.172 373.972 419.355 374.802 418.294C378.154 414.504 381.212 412.462 384.022 410.741C385.414 409.911 386.77 409.417 388.033 408.9C389.32 408.29 390.563 407.896 391.782 407.594L401.146 408.96C401.76 409.066 402.588 409.217 403.391 409.43C404.194 409.643 404.726 409.876 405.228 410.112C405.79 410.343 406.234 410.612 406.677 410.882C407.151 411.15 407.535 411.424 407.918 411.699C409.485 412.824 410.757 414.062 412.013 415.483C414.491 418.297 416.643 422.013 418.839 426.331C419.38 427.502 419.912 428.553 420.403 429.879L421.882 433.917L423.354 438.259C423.852 439.675 424.261 441.522 424.712 443.123C428.319 456.692 429.709 477.145 430.69 495.328L432.107 521.865C432.326 526.057 432.635 530.242 432.952 534.124L433.342 539.393L433.613 543.066C433.789 545.445 433.999 547.882 434.299 549.888C434.442 550.997 434.592 551.804 434.715 552.642C434.767 552.941 434.817 553.21 434.842 553.541C434.844 553.571 434.781 553.546 434.754 553.578L434.178 553.984L433.377 554.618L432.609 555.28L432.24 555.61C431.469 556.243 433.098 554.941 432.783 555.177L432.439 555.444C431.982 555.811 431.527 556.208 431.072 556.605L429.883 557.722C429.228 558.285 428.536 559.154 428.171 559.544C427.225 560.674 427.074 561.502 427.135 561.498C427.158 561.405 426.746 560.739 425.442 559.897L424.968 559.629L424.365 559.25C423.954 559.008 423.547 558.826 423.109 558.647C422.039 558.09 420.913 557.598 419.67 557.175C417.455 556.279 418.236 556.615 418.139 556.532L418.249 556.372C418.249 556.372 418.437 556.055 418.54 555.806C418.75 555.366 418.95 554.807 419.181 554.245L421.976 546.591C425.886 536.008 430.888 525.86 436.744 516.617C448.482 498.07 463.396 482.769 479.547 469.859C466.612 486.951 456.073 505.743 449.864 525.366C446.718 535.225 444.838 545.022 443.782 555.302L443.327 559.393C443.135 560.89 443.027 562.291 442.424 564.788C442.26 565.435 442.017 566.241 441.611 567.3C441.508 567.55 441.326 567.957 441.198 568.269C441.014 568.646 440.937 568.833 440.616 569.402C440.35 569.906 440.052 570.382 439.722 570.83C439.283 571.438 438.646 572.242 438.056 572.861L437.549 573.382L436.753 574.077C436.21 574.511 435.635 574.917 435.057 575.292C434.567 575.631 433.693 576.089 432.81 576.427C431.926 576.765 431.039 577.042 430.114 577.232C428.355 577.604 426.297 577.605 424.58 577.308C423.23 577.075 421.773 576.607 420.642 576.055C419.826 575.661 419.038 575.235 418.303 574.714C417.633 574.249 417.342 573.998 416.859 573.61L416.212 573.052L415.79 572.66L415.005 571.87C414.545 571.389 414.28 571.076 413.915 570.649L413.177 569.674C412.707 569.043 412.234 568.381 411.791 567.718C411.284 566.999 411.068 566.53 410.757 566.008L409.884 564.438C407.869 560.53 406.631 557.291 405.556 554.222C404.45 551.125 403.537 548.196 402.656 545.294C402.312 544.32 402.056 543.734 401.786 542.936L401.061 541.325L399.763 538.514C398.94 536.789 398.168 535.363 397.479 534.233C396.071 531.976 394.814 530.948 393.677 531.123C392.539 531.298 391.553 532.703 390.598 535.347C390.348 536.062 390.12 536.654 389.776 537.739C389.497 538.88 389.371 540.039 389.238 541.109C389.005 543.276 388.932 545.158 388.96 546.76C388.96 546.76 388.96 546.76 388.957 546.73L388.696 547.295L387.382 549.995C386.488 551.817 385.533 553.644 384.494 555.567C382.385 559.386 380.132 563.307 376.602 567.988C374.864 570.266 372.693 572.848 369.719 575.611C366.74 578.314 362.605 581.768 355.539 584.47C352.004 585.791 347.594 586.752 342.843 586.771C340.481 586.764 338.008 586.492 335.645 586.061C333.399 585.561 331.138 584.881 328.985 584.011C326.827 583.08 324.656 581.969 322.745 580.688C320.864 579.404 318.937 577.911 317.374 576.422C315.906 574.987 314.391 573.343 313.22 571.825C312.145 570.391 311.094 568.864 310.195 567.356C306.926 561.634 305.76 557.33 304.781 553.497L304.217 550.784L303.826 548.361C303.551 546.686 303.451 545.331 303.281 543.86C302.805 538.234 302.923 533.684 303.116 529.34C303.312 525.027 303.715 521.062 304.158 517.214C305.963 501.914 308.743 488.327 311.53 474.831L320.022 435.725C321.373 429.419 322.637 423.179 323.66 417.352C324.171 414.438 324.598 411.621 324.9 409.147C325.052 407.924 325.176 406.735 325.231 405.852L325.295 404.667L325.271 404.336L325.29 404.183C325.29 404.183 325.109 404.196 325.47 404.17C336.169 403.924 344.495 402.703 349.032 401.005C350.068 400.687 351.165 399.97 351.659 399.691C352.372 399.093 352.546 398.99 352.732 398.643L352.566 399.261C352.566 399.261 352.575 399.381 352.547 399.413C352.552 399.474 352.554 399.504 352.556 399.534L352.561 399.594L352.578 399.835C352.603 400.166 352.625 400.467 352.708 400.764C353.213 403.512 356.545 409.26 361.818 415.076C363.219 416.819 364.703 418.466 366.24 420.017L368.625 422.384L368.57 422.448C368.57 422.448 368.4 422.612 368.181 422.931C367.349 423.961 365.98 425.909 364.653 428.036C363.271 430.227 361.845 432.633 360.427 435.16C354.702 445.362 349.076 456.888 343.604 468.464C338.107 480.102 332.72 492.004 327.339 503.997C316.551 528.014 305.995 552.318 294.23 577.043C291.268 583.256 288.186 589.479 284.786 595.906C283.058 599.152 281.328 602.368 279.285 605.849C277.181 609.334 275.109 612.848 271.632 617.404C270.89 618.428 269.579 619.947 268.492 621.208C266.889 622.871 265.718 624.229 262.742 626.568L261.74 627.338C261.366 627.608 261.166 627.774 260.501 628.187C259.375 628.936 258.183 629.599 256.989 630.233C256.376 630.55 255.792 630.836 255.178 631.123C254.943 631.232 254.533 631.413 253.944 631.638L252.321 632.212C250.136 632.949 247.842 633.452 245.562 633.741C245.083 633.807 244.3 633.865 243.394 633.902C242.549 633.934 241.702 633.936 240.852 633.908C239.122 633.854 237.412 633.648 235.72 633.288C233.998 632.931 232.457 632.561 230.743 631.9C229.059 631.237 227.367 630.454 225.753 629.514C224.172 628.602 222.543 627.451 221.286 626.423C220.351 625.645 219.471 624.802 218.587 623.898C217.735 623.023 216.909 622.085 216.141 621.112C215.776 620.685 215.306 620.054 215.101 619.736L214.487 618.812C213.669 617.571 212.907 616.265 212.232 614.922C211.843 614.164 211.664 613.784 211.482 613.373L210.93 612.052C210.564 611.201 210.222 610.257 209.919 609.432L209.327 607.569L208.793 605.67L208.473 604.211C208.284 603.286 208.021 602.185 207.94 601.495L207.553 599.132L207.311 597.091C207.114 595.653 207.066 594.597 206.943 593.334C206.266 584.181 206.47 577.112 206.599 569.837C206.996 555.548 207.844 542.044 208.667 528.602L210.147 505.212L194.779 541.405L194.743 541.741Z" fill="#00C0D8"/>
<path d="M97.5765 447.717L96.3997 449.408C97.6315 459.519 76.3215 462.427 68.5956 462.755L66.9729 464.147C65.5635 463.101 65.1519 463.676 66.2032 465.203C71.4006 467.937 77.2231 466.023 82.4279 463.943C97.071 506.819 154.094 518.922 183.752 485.608C186.631 482.367 190.21 476.32 184.329 473.758C177.667 470.86 175.453 476.957 171.538 480.092C150.951 496.479 124.461 496.469 105.25 477.393C102.994 475.138 94.068 463.325 94.1029 460.931C94.1468 458.657 101.325 457.884 99.7284 449.798C99.4387 448.336 98.5891 447.49 98.3483 446.691C96.6847 445.482 96.2452 446.089 97.5787 447.747L97.5765 447.717Z" fill="white"/>
<path d="M98.3465 446.661C97.2509 442.897 96.1362 440.103 100.362 437.066C105.047 433.693 120.666 437.745 118.406 427.649C116.056 417.166 100.152 417.434 93.3097 422.753C95.4047 411.367 90.1013 388.357 79.5963 382.624C61.8668 372.945 78.7349 406.605 75.1153 412.927C70.1967 402.906 63.0601 386.632 49.8341 387.912C32.3415 389.629 57.631 411.071 55.7124 414.603C50.6792 410.404 36.4876 403.945 31.6747 410.507C25.8735 418.444 44.702 424.56 47.8281 429.173C52.7549 436.438 48.6476 444.764 55.653 451.482C57.2185 453.001 61.2216 454.733 61.7222 455.362C63.0256 457.022 59.3973 461.589 66.169 465.145L66.9387 464.089L67.6549 462.31C66.8576 461.764 64.4305 458.008 65.4677 457.295C72.2276 458.642 78.9709 459.355 85.1996 455.564C89.3329 452.504 93.4672 449.867 97.5445 447.689C97.6047 447.684 97.6038 446.443 98.3141 446.633L98.3465 446.661Z" fill="#75787F"/>
<path d="M66.973 464.147C71.8626 466.813 92.2899 460.157 96.3007 456.257C99.0689 453.57 99.4997 451.207 97.5465 447.719C96.8819 447.738 96.0814 446.737 94.5535 447.365C86.68 450.611 85.3765 456.732 72.8377 456.66C69.3249 456.647 62.6681 452.598 63.6249 459.399C63.7675 460.509 66.1222 463.695 66.9429 464.149L66.973 464.147Z" fill="#F5F6FA"/>
<path d="M72.5507 383.962C73.1187 395.334 79.8394 405.161 76.0516 416.581C74.6052 417.082 74.1369 416.481 73.3832 415.295C69.412 409.08 69.7711 402.06 63.0065 395.324C59.6749 392.029 50.0385 386.989 46.0791 390.763C41.1862 395.424 62.6679 414.089 59.4104 421.626C54.8938 415.814 41.3764 405.37 34.1784 410.382C26.7484 415.533 43.3531 422.692 45.6612 424.428C54.064 430.801 50.9134 439.783 54.6514 447.347C60.5208 459.175 87.1414 455.209 94.0669 445.282C96.5576 441.707 94.8508 438.685 99.5194 435.494C105.255 431.588 111.847 435.581 115.389 431.475C120.352 425.719 109.985 420.219 104.997 420.315C99.1314 420.416 95.0872 424.68 90.1623 426.861C93.7783 415.574 91.5959 402.021 85.5778 391.87C82.7416 387.084 78.5249 381.644 72.4838 383.877L72.5507 383.962Z" fill="#F5F6FA"/>
<path d="M66.6611 441.495C69.9788 440.917 71.5739 437.923 74.914 436.828C75.8017 436.55 86.204 435.57 82.9124 433.633C76.8882 434.048 69.6663 435.46 66.6611 441.495Z" fill="#75787F"/>
<path d="M309.123 307.108C289.461 309.773 269.89 280.915 264.55 241.439C259.21 201.962 270.424 168.952 290.086 166.288C309.749 163.623 329.32 192.481 334.66 231.958C340 271.434 328.786 304.444 309.123 307.108ZM290.768 171.414C274.432 173.621 264.671 205.404 269.465 240.773C274.262 276.172 292.105 304.189 308.442 301.982C324.778 299.775 334.538 267.993 329.744 232.624C324.948 197.224 307.104 169.208 290.768 171.414Z" fill="#F5F6FA"/>
<path d="M230.62 317.725C210.957 320.389 191.386 291.531 186.046 252.055C180.706 212.579 191.92 179.568 211.583 176.904C231.246 174.24 250.817 203.097 256.157 242.574C261.497 282.05 250.283 315.06 230.62 317.725ZM212.265 182.031C195.928 184.237 186.168 216.02 190.962 251.389C195.758 286.788 213.602 314.805 229.938 312.598C246.275 310.392 256.035 278.609 251.241 243.24C246.447 207.871 228.601 179.824 212.265 182.031Z" fill="#F5F6FA"/>
<path d="M230.221 283.663C237.343 282.7 241.493 269.904 239.489 255.082C237.486 240.259 230.089 229.024 222.967 229.987C215.845 230.949 211.695 243.745 213.699 258.567C215.702 273.39 223.1 284.625 230.221 283.663Z" fill="#0F1029"/>
<path d="M230.405 284.923C222.492 285.993 214.619 274.495 212.484 258.729C210.35 242.963 214.887 229.791 222.8 228.722C230.713 227.652 238.587 239.15 240.721 254.916C242.855 270.683 238.319 283.854 230.405 284.923ZM223.167 231.238C216.843 232.099 213.099 244.515 214.97 258.364C216.841 272.212 223.769 283.204 230.093 282.343C236.418 281.482 240.162 269.065 238.291 255.217C236.419 241.369 229.492 230.377 223.167 231.238Z" fill="#0F1029"/>
<path d="M298.222 276.065C305.344 275.103 309.493 262.306 307.49 247.484C305.487 232.662 298.089 221.427 290.967 222.389C283.845 223.352 279.696 236.148 281.699 250.97C283.703 265.792 291.1 277.028 298.222 276.065Z" fill="#0F1029"/>
<path d="M298.415 277.323C290.502 278.393 282.628 266.895 280.494 251.129C278.36 235.362 282.896 222.191 290.81 221.122C298.723 220.052 306.596 231.55 308.731 247.316C310.865 263.083 306.328 276.254 298.415 277.323ZM291.177 223.637C284.853 224.498 281.109 236.915 282.98 250.763C284.851 264.612 291.779 275.604 298.103 274.743C304.427 273.882 308.172 261.465 306.301 247.617C304.429 233.769 297.501 222.776 291.177 223.637Z" fill="#0F1029"/>
<path d="M268.5 328.881C265.532 329.282 262.895 329.235 260.747 328.848C257.067 328.212 254.319 326.66 252.728 324.385C251.137 322.111 250.626 318.88 251.225 315.112C252.235 308.71 257.008 299.153 267.349 291.608L270.234 295.815C261.127 302.452 256.977 310.599 256.134 315.99C255.763 318.348 256 320.329 256.747 321.424C257.494 322.519 259.254 323.388 261.524 323.796C266.739 324.712 275.535 323.305 284.575 316.582L287.489 320.787C280.773 325.764 274.048 328.168 268.472 328.913L268.5 328.881Z" fill="#F5F6FA"/>
<path d="M301.513 348.722C292.46 349.937 282.9 350.038 274.175 348.715L274.827 343.611C294.019 346.461 317.243 342.413 328.804 334.172C350.719 318.565 352.974 303.201 353.482 287.542L358.462 287.749C357.945 304.105 355.444 321.455 331.66 338.411C324.557 343.477 313.501 347.08 301.54 348.69L301.513 348.722Z" fill="#F5F6FA"/>
<path d="M243.654 98.0005L238.686 98.3677C238.624 97.5246 238.566 96.7418 238.448 95.9634C237.97 91.5484 237.511 86.9806 241.232 77.9261C243.723 71.8991 248.734 67.1995 255.022 64.6155C254.844 58.9371 255.746 53.1184 258.168 47.7928C260.774 42.0903 265.259 36.8241 270.401 33.0835C270.888 27.3863 272.597 21.4171 275.853 15.9087L280.11 18.6215C277.931 22.3246 276.551 26.1806 275.827 29.8973C281.128 27.4771 286.715 26.8825 291.49 29.2239C296.452 31.6424 300.656 37.3259 302.221 43.7494C303.387 48.4768 302.821 52.6965 300.68 55.6702C298.51 58.6764 294.587 60.4801 289.904 60.6143C285.615 60.7496 281.248 59.4074 278.228 57.0573C273.922 53.6822 271.054 47.2339 270.407 39.7131C267.172 42.6466 264.413 46.2716 262.693 50.0316C260.814 54.1061 260.027 58.6146 260.023 63.0651C261.84 62.6584 263.7 62.4301 265.634 62.378C274.848 62.1207 282.656 66.1755 286.067 73.0075C287.736 76.3354 286.952 80.874 283.928 85.4267C280.874 89.9816 275.595 94.3377 270.706 93.7303C266.949 93.2814 263.222 89.9543 260.235 84.3625C258.094 80.3732 256.393 75.3826 255.573 70.0242C251.54 71.9873 247.87 75.1649 245.864 79.9754C242.626 87.7832 243.009 91.3273 243.435 95.4434C243.497 96.2864 243.62 97.1251 243.684 97.9982L243.654 98.0005ZM260.35 68.3087C261.002 73.4374 262.569 78.2562 264.533 81.8953C266.638 85.7965 269.189 88.3628 271.205 88.6074C273.557 88.8876 277.324 86.1873 279.803 82.462C281.685 79.6588 282.386 76.852 281.638 75.333C279.147 70.31 273.085 67.3371 265.834 67.5401C264.111 67.5766 262.251 67.8049 260.35 68.3087ZM275.225 36.0874C275.158 43.782 277.755 50.2503 281.225 52.9607C283.346 54.6204 286.534 55.5654 289.737 55.4801C292.849 55.4014 295.432 54.3022 296.697 52.5739C297.934 50.878 298.183 48.1046 297.407 44.9832C296.236 40.1956 292.932 35.6263 289.415 33.9184C285.301 31.9217 280.062 33.1263 275.225 36.0874Z" fill="#F5F6FA"/>
<path d="M257.435 134.128C257.193 134.539 254.428 139.315 257.733 142.673C261.889 146.877 270.55 143.633 285.782 146.564C298.68 149.032 305.078 152.04 305.078 152.04C305.078 152.04 299.21 130.404 280.932 127.638C272.88 126.417 261.072 128.046 257.435 134.128Z" fill="#F5F6FA"/>
<path d="M226.861 138.265C227.187 138.574 231.139 142.49 228.837 146.566C225.948 151.714 216.746 150.911 202.813 157.783C191.042 163.588 185.66 168.194 185.66 168.194C185.66 168.194 185.579 145.797 202.459 138.253C209.905 134.947 221.717 133.378 226.831 138.268L226.861 138.265Z" fill="#F5F6FA"/>
<path d="M486.451 516.97C486.304 517.859 487.428 519.955 486.346 520.066C453.931 517.315 424.747 498.068 409.234 468.396C407.753 465.569 402.064 450.852 401.211 450.371C396.028 447.424 392.686 452.181 394.023 457.986C402.245 493.859 441.872 522.505 475.353 529.022C478.116 529.544 486.746 529.573 487.985 530.359C489.765 531.499 490.518 536.771 495.297 538.356C495.965 537.973 495.88 537.647 495.161 537.336C494.276 534.374 492.954 531.233 491.163 527.884C490.813 523.974 489.653 520.972 487.679 518.847C487.628 517.337 487.188 516.704 486.42 516.972L486.451 516.97Z" fill="#F5F6FA"/>
<path d="M487.02 517.715L488.281 519.62L490.308 518.774C490.723 515.383 491.762 511.824 494.344 509.484C492.963 514.157 495.494 519.722 499.558 514.911C500.249 500.086 515.077 500.413 522.856 510.222C528.298 517.086 532.522 539.419 517.906 530.902C510.393 509.539 503.396 522.59 514.276 535.045C520.508 537.431 523.291 546.004 513.826 542.466C507.442 540.061 503.409 533.427 501.127 527.117C494.539 523.184 495.961 533.008 499.341 536.543C497.868 536.682 496.669 537.255 495.807 538.288L495.943 539.307C499.387 540.445 501.276 538.973 504.002 539.801C505.612 540.288 508.632 543.879 510.776 545.022C516.856 548.236 519.689 546.422 525.24 546.98C528.076 547.255 530.79 549.567 533.885 549.672C542.651 549.902 551.667 542.03 550.058 532.552C549.682 530.339 547.659 527.946 547.591 526.619C547.371 522.003 554.875 519.087 547.689 509.113C544.247 504.312 544.104 504.02 541.223 498.632C536.104 489.171 521.493 488.102 513.324 493.489C510.352 495.464 509.063 498.92 506.857 500.203C502.881 502.526 496.017 504.274 492.684 506.276C489.262 508.316 487.553 513.861 486.988 517.687L487.02 517.715Z" fill="#75787F"/>
<path d="M495.807 538.288C497.756 539.264 499.846 538.867 501.817 538.51C503.175 536.805 495.35 529.239 499.303 527.433C502.201 537.966 511.434 547.789 522.701 544.988C521.121 542.865 521.273 537.556 520.296 536.205C520.125 535.945 516.547 534.636 515.069 533.08C511.591 529.431 510.632 524.658 510.298 519.718L516.526 532.306C531.394 541.773 531.884 524.238 526.957 513.28C519.968 497.781 497.732 495.943 497.672 515.202C493.464 514.787 498.064 507.393 497.577 506.944C491.517 505.243 488.325 514.894 488.279 519.59C488.251 524.95 490.646 535.642 495.807 538.288Z" fill="#F5F6FA"/>
<path d="M510.655 499.983C517.724 499.37 522.983 504.158 526.856 509.866C530.044 514.505 528.898 519.887 535.938 516.824C546.413 512.326 542.308 496.523 532.775 493.292C529.359 492.122 521.674 491.782 518.207 492.795C516.784 493.203 508.423 498.453 510.625 499.985L510.655 499.983Z" fill="#F5F6FA"/>
<path d="M521.619 536.895C523.643 555.273 553.595 548.457 547.808 530.781C546.165 525.756 541.773 531.045 538.39 531.568C536.027 531.954 533.551 530.805 531.444 531.385C528.684 532.134 527.088 538.397 521.619 536.895Z" fill="#F5F6FA"/>
<path d="M530.235 519.122L531.729 530.334C545.194 531.458 555.239 519.091 544.21 507.917C542.224 514.634 537.709 520.719 530.235 519.122Z" fill="#F5F6FA"/>
<path d="M501.488 520.945L508.757 523.041C509.022 519.661 503.246 521.39 501.488 520.945Z" fill="#595959"/>
<path d="M221.64 248.675C222.731 248.528 223.367 246.573 223.061 244.309C222.755 242.045 221.623 240.33 220.532 240.477C219.442 240.624 218.806 242.579 219.112 244.843C219.418 247.107 220.55 248.822 221.64 248.675Z" fill="#F5F6FA"/>
<path d="M221.684 248.845C220.484 248.995 219.264 247.238 218.936 244.84C218.607 242.443 219.306 240.423 220.503 240.244C221.701 240.065 222.923 241.851 223.252 244.249C223.58 246.647 222.882 248.666 221.684 248.845ZM220.565 240.663C219.606 240.795 219.019 242.685 219.327 244.811C219.636 246.938 220.666 248.588 221.627 248.486C222.589 248.385 223.173 246.465 222.865 244.338C222.586 242.209 221.526 240.562 220.565 240.663Z" fill="#F5F6FA"/>
<path d="M229.342 260.749C230.432 260.601 231.068 258.647 230.762 256.383C230.456 254.119 229.324 252.403 228.233 252.551C227.143 252.698 226.507 254.653 226.813 256.917C227.119 259.18 228.251 260.896 229.342 260.749Z" fill="#F5F6FA"/>
<path d="M229.389 260.931C228.189 261.08 226.97 259.323 226.641 256.926C226.312 254.528 227.011 252.509 228.208 252.329C229.406 252.15 230.628 253.936 230.957 256.334C231.285 258.732 230.587 260.751 229.389 260.931ZM228.27 252.748C227.311 252.88 226.724 254.77 227.032 256.897C227.341 259.023 228.371 260.673 229.332 260.571C230.294 260.47 230.878 258.55 230.57 256.423C230.291 254.294 229.231 252.647 228.27 252.748Z" fill="#F5F6FA"/>
<path d="M286.454 241.539C287.545 241.391 288.181 239.437 287.875 237.173C287.569 234.909 286.437 233.193 285.346 233.341C284.256 233.488 283.62 235.443 283.926 237.707C284.232 239.97 285.364 241.686 286.454 241.539Z" fill="#F5F6FA"/>
<path d="M286.457 241.696C285.257 241.846 284.037 240.089 283.709 237.691C283.38 235.294 284.079 233.274 285.276 233.095C286.474 232.916 287.696 234.702 288.025 237.1C288.353 239.498 287.655 241.517 286.457 241.696ZM285.365 233.482C284.406 233.613 283.82 235.504 284.128 237.63C284.437 239.757 285.467 241.406 286.428 241.305C287.389 241.204 287.974 239.283 287.665 237.157C287.387 235.028 286.327 233.381 285.365 233.482Z" fill="#F5F6FA"/>
<path d="M294.121 253.587C295.211 253.439 295.847 251.485 295.542 249.221C295.236 246.957 294.103 245.241 293.013 245.389C291.922 245.536 291.286 247.491 291.592 249.755C291.898 252.018 293.03 253.734 294.121 253.587Z" fill="#F5F6FA"/>
<path d="M294.16 253.751C292.96 253.901 291.74 252.144 291.411 249.746C291.083 247.349 291.781 245.329 292.979 245.15C294.177 244.971 295.399 246.757 295.727 249.155C296.056 251.553 295.357 253.572 294.16 253.751ZM293.04 245.569C292.081 245.701 291.494 247.591 291.803 249.717C292.111 251.844 293.142 253.494 294.103 253.392C295.064 253.291 295.649 251.371 295.34 249.244C295.062 247.115 294.002 245.468 293.04 245.569Z" fill="#F5F6FA"/>
</svg>
